<?xml version="1.0" encoding="utf-8"?>
<!-- Generator: Adobe Illustrator 16.0.4, SVG Export Plug-In . SVG Version: 6.00 Build 0)  -->
<!DOCTYPE svg PUBLIC "-//W3C//DTD SVG 1.1//EN" "http://www.w3.org/Graphics/SVG/1.1/DTD/svg11.dtd">
<svg version="1.1" id="Слой_1" xmlns="http://www.w3.org/2000/svg" xmlns:xlink="http://www.w3.org/1999/xlink" x="0px" y="0px"
	 width="623.622px" height="311.811px" viewBox="0 0 623.622 311.811">
<line fill="none" stroke="#404040" stroke-width="0.7087" stroke-miterlimit="10" x1="552.756" y1="28.346" x2="595.275" y2="28.346"/>
<line fill="none" stroke="#404040" stroke-width="0.7087" stroke-miterlimit="10" x1="595.275" y1="28.346" x2="595.275" y2="70.866"/>
<text transform="matrix(1 0 0 1 14.1733 31.1812)" fill="#404040" font-family="'Calibri-Italic'" font-size="10">От Кого  </text>
<line fill="none" stroke="#BFBFBF" stroke-width="0.4252" stroke-miterlimit="10" x1="54.417" y1="32.681" x2="240.945" y2="32.681"/>
<text transform="matrix(1 0 0 1 14.1733 49.606)" fill="#404040" font-family="'Calibri-Italic'" font-size="10">Откуда  </text>
<line fill="none" stroke="#BFBFBF" stroke-width="0.4252" stroke-miterlimit="10" x1="52.66" y1="51.106" x2="240.945" y2="51.106"/>
<line fill="none" stroke="#BFBFBF" stroke-width="0.4252" stroke-miterlimit="10" x1="14.173" y1="69.532" x2="240.945" y2="69.532"/>
<rect x="155.905" y="69.532" fill="none" stroke="#404040" stroke-width="0.7087" stroke-miterlimit="10" width="85.04" height="19.842"/>
<text transform="matrix(1 0 0 1 161.7837 75.5317)" font-family="'Calibri-Italic'" font-size="6">Индекс места отправления</text>
<text transform="matrix(1 0 0 1 297.6377 185.6694)"><tspan x="0" y="0" fill="#404040" font-family="'Calibri-Italic'" font-size="10">Кому</tspan><tspan x="22.917" y="0" fill="#404040" font-family="'Calibri-Italic'" font-size="10">  </tspan></text>
<line fill="none" stroke="#BFBFBF" stroke-width="0.4252" stroke-miterlimit="10" x1="323.956" y1="187.169" x2="566.929" y2="187.169"/>
<text transform="matrix(1 0 0 1 297.6377 204.0942)"><tspan x="0" y="0" fill="#404040" font-family="'Calibri-Italic'" font-size="10">Куда</tspan><tspan x="21.423" y="0" fill="#404040" font-family="'Calibri-Italic'" font-size="10">  </tspan></text>
<line fill="none" stroke="#BFBFBF" stroke-width="0.4252" stroke-miterlimit="10" x1="322.462" y1="205.594" x2="566.929" y2="205.594"/>
<line fill="none" stroke="#BFBFBF" stroke-width="0.4252" stroke-miterlimit="10" x1="297.638" y1="224.02" x2="566.929" y2="224.02"/>
<line fill="none" stroke="#BFBFBF" stroke-width="0.4252" stroke-miterlimit="10" x1="297.638" y1="242.445" x2="566.929" y2="242.445"/>
<rect x="297.638" y="242.445" fill="none" stroke="#404040" stroke-width="0.7087" stroke-miterlimit="10" width="99.213" height="22.678"/>
<line fill="none" stroke="#000000" stroke-width="5.6693" stroke-miterlimit="10" x1="28.347" y1="243.78" x2="48.189" y2="243.78"/>
<line fill="none" stroke="#000000" stroke-width="2.8346" stroke-miterlimit="10" x1="28.347" y1="250.866" x2="48.189" y2="250.866"/>
<line fill="none" stroke="#000000" stroke-width="5.6693" stroke-miterlimit="10" x1="53.858" y1="243.78" x2="73.701" y2="243.78"/>
<path fill-rule="evenodd" clip-rule="evenodd" d="M57.193,252.284c0-0.276-0.224-0.5-0.5-0.5c-0.276,0-0.5,0.224-0.5,0.5
	s0.224,0.5,0.5,0.5C56.969,252.784,57.193,252.56,57.193,252.284"/>
<path fill-rule="evenodd" clip-rule="evenodd" d="M60.027,252.284c0-0.276-0.224-0.5-0.5-0.5c-0.276,0-0.5,0.224-0.5,0.5
	s0.224,0.5,0.5,0.5C59.804,252.784,60.027,252.56,60.027,252.284"/>
<path fill-rule="evenodd" clip-rule="evenodd" d="M62.862,252.284c0-0.276-0.224-0.5-0.5-0.5c-0.276,0-0.5,0.224-0.5,0.5
	s0.224,0.5,0.5,0.5C62.638,252.784,62.862,252.56,62.862,252.284"/>
<path fill-rule="evenodd" clip-rule="evenodd" d="M65.697,252.284c0-0.276-0.224-0.5-0.5-0.5c-0.276,0-0.5,0.224-0.5,0.5
	s0.224,0.5,0.5,0.5C65.473,252.784,65.697,252.56,65.697,252.284"/>
<path fill-rule="evenodd" clip-rule="evenodd" d="M68.531,252.284c0-0.276-0.224-0.5-0.5-0.5c-0.276,0-0.5,0.224-0.5,0.5
	s0.224,0.5,0.5,0.5C68.308,252.784,68.531,252.56,68.531,252.284"/>
<path fill-rule="evenodd" clip-rule="evenodd" d="M71.366,252.284c0-0.276-0.224-0.5-0.5-0.5c-0.276,0-0.5,0.224-0.5,0.5
	s0.224,0.5,0.5,0.5C71.142,252.784,71.366,252.56,71.366,252.284"/>
<path fill-rule="evenodd" clip-rule="evenodd" d="M57.193,266.457c0-0.276-0.224-0.5-0.5-0.5c-0.276,0-0.5,0.224-0.5,0.5
	s0.224,0.5,0.5,0.5C56.969,266.957,57.193,266.733,57.193,266.457"/>
<path fill-rule="evenodd" clip-rule="evenodd" d="M60.027,266.457c0-0.276-0.224-0.5-0.5-0.5c-0.276,0-0.5,0.224-0.5,0.5
	s0.224,0.5,0.5,0.5C59.804,266.957,60.027,266.733,60.027,266.457"/>
<path fill-rule="evenodd" clip-rule="evenodd" d="M62.862,266.457c0-0.276-0.224-0.5-0.5-0.5c-0.276,0-0.5,0.224-0.5,0.5
	s0.224,0.5,0.5,0.5C62.638,266.957,62.862,266.733,62.862,266.457"/>
<path fill-rule="evenodd" clip-rule="evenodd" d="M65.697,266.457c0-0.276-0.224-0.5-0.5-0.5c-0.276,0-0.5,0.224-0.5,0.5
	s0.224,0.5,0.5,0.5C65.473,266.957,65.697,266.733,65.697,266.457"/>
<path fill-rule="evenodd" clip-rule="evenodd" d="M68.531,266.457c0-0.276-0.224-0.5-0.5-0.5c-0.276,0-0.5,0.224-0.5,0.5
	s0.224,0.5,0.5,0.5C68.308,266.957,68.531,266.733,68.531,266.457"/>
<path fill-rule="evenodd" clip-rule="evenodd" d="M71.366,266.457c0-0.276-0.224-0.5-0.5-0.5c-0.276,0-0.5,0.224-0.5,0.5
	s0.224,0.5,0.5,0.5C71.142,266.957,71.366,266.733,71.366,266.457"/>
<path fill-rule="evenodd" clip-rule="evenodd" d="M57.193,280.63c0-0.276-0.224-0.5-0.5-0.5c-0.276,0-0.5,0.224-0.5,0.5
	c0,0.275,0.224,0.5,0.5,0.5C56.969,281.13,57.193,280.906,57.193,280.63"/>
<path fill-rule="evenodd" clip-rule="evenodd" d="M60.027,280.63c0-0.276-0.224-0.5-0.5-0.5c-0.276,0-0.5,0.224-0.5,0.5
	c0,0.275,0.224,0.5,0.5,0.5C59.804,281.13,60.027,280.906,60.027,280.63"/>
<path fill-rule="evenodd" clip-rule="evenodd" d="M62.862,280.63c0-0.276-0.224-0.5-0.5-0.5c-0.276,0-0.5,0.224-0.5,0.5
	c0,0.275,0.224,0.5,0.5,0.5C62.638,281.13,62.862,280.906,62.862,280.63"/>
<path fill-rule="evenodd" clip-rule="evenodd" d="M65.697,280.63c0-0.276-0.224-0.5-0.5-0.5c-0.276,0-0.5,0.224-0.5,0.5
	c0,0.275,0.224,0.5,0.5,0.5C65.473,281.13,65.697,280.906,65.697,280.63"/>
<path fill-rule="evenodd" clip-rule="evenodd" d="M68.531,280.63c0-0.276-0.224-0.5-0.5-0.5c-0.276,0-0.5,0.224-0.5,0.5
	c0,0.275,0.224,0.5,0.5,0.5C68.308,281.13,68.531,280.906,68.531,280.63"/>
<path fill-rule="evenodd" clip-rule="evenodd" d="M71.366,280.63c0-0.276-0.224-0.5-0.5-0.5c-0.276,0-0.5,0.224-0.5,0.5
	c0,0.275,0.224,0.5,0.5,0.5C71.142,281.13,71.366,280.906,71.366,280.63"/>
<path fill-rule="evenodd" clip-rule="evenodd" d="M57.193,266.457c0-0.276-0.224-0.5-0.5-0.5c-0.276,0-0.5,0.224-0.5,0.5
	s0.224,0.5,0.5,0.5C56.969,266.957,57.193,266.733,57.193,266.457"/>
<path fill-rule="evenodd" clip-rule="evenodd" d="M60.027,263.622c0-0.275-0.224-0.5-0.5-0.5c-0.276,0-0.5,0.225-0.5,0.5
	c0,0.276,0.224,0.5,0.5,0.5C59.804,264.122,60.027,263.898,60.027,263.622"/>
<path fill-rule="evenodd" clip-rule="evenodd" d="M62.862,260.788c0-0.276-0.224-0.5-0.5-0.5c-0.276,0-0.5,0.224-0.5,0.5
	s0.224,0.5,0.5,0.5C62.638,261.288,62.862,261.064,62.862,260.788"/>
<path fill-rule="evenodd" clip-rule="evenodd" d="M65.697,257.953c0-0.276-0.224-0.5-0.5-0.5c-0.276,0-0.5,0.224-0.5,0.5
	s0.224,0.5,0.5,0.5C65.473,258.453,65.697,258.229,65.697,257.953"/>
<path fill-rule="evenodd" clip-rule="evenodd" d="M68.531,255.118c0-0.275-0.224-0.5-0.5-0.5c-0.276,0-0.5,0.225-0.5,0.5
	c0,0.276,0.224,0.5,0.5,0.5C68.308,255.618,68.531,255.394,68.531,255.118"/>
<path fill-rule="evenodd" clip-rule="evenodd" d="M71.366,252.284c0-0.276-0.224-0.5-0.5-0.5c-0.276,0-0.5,0.224-0.5,0.5
	s0.224,0.5,0.5,0.5C71.142,252.784,71.366,252.56,71.366,252.284"/>
<path fill-rule="evenodd" clip-rule="evenodd" d="M57.193,280.63c0-0.276-0.224-0.5-0.5-0.5c-0.276,0-0.5,0.224-0.5,0.5
	c0,0.275,0.224,0.5,0.5,0.5C56.969,281.13,57.193,280.906,57.193,280.63"/>
<path fill-rule="evenodd" clip-rule="evenodd" d="M60.027,277.795c0-0.276-0.224-0.5-0.5-0.5c-0.276,0-0.5,0.224-0.5,0.5
	s0.224,0.5,0.5,0.5C59.804,278.295,60.027,278.072,60.027,277.795"/>
<path fill-rule="evenodd" clip-rule="evenodd" d="M62.862,274.96c0-0.276-0.224-0.5-0.5-0.5c-0.276,0-0.5,0.224-0.5,0.5
	s0.224,0.5,0.5,0.5C62.638,275.46,62.862,275.237,62.862,274.96"/>
<path fill-rule="evenodd" clip-rule="evenodd" d="M65.697,272.126c0-0.276-0.224-0.5-0.5-0.5c-0.276,0-0.5,0.224-0.5,0.5
	c0,0.275,0.224,0.5,0.5,0.5C65.473,272.626,65.697,272.402,65.697,272.126"/>
<path fill-rule="evenodd" clip-rule="evenodd" d="M68.531,269.292c0-0.276-0.224-0.5-0.5-0.5c-0.276,0-0.5,0.224-0.5,0.5
	s0.224,0.5,0.5,0.5C68.308,269.792,68.531,269.568,68.531,269.292"/>
<path fill-rule="evenodd" clip-rule="evenodd" d="M71.366,266.457c0-0.276-0.224-0.5-0.5-0.5c-0.276,0-0.5,0.224-0.5,0.5
	s0.224,0.5,0.5,0.5C71.142,266.957,71.366,266.733,71.366,266.457"/>
<path fill-rule="evenodd" clip-rule="evenodd" d="M57.193,266.457c0-0.276-0.224-0.5-0.5-0.5c-0.276,0-0.5,0.224-0.5,0.5
	s0.224,0.5,0.5,0.5C56.969,266.957,57.193,266.733,57.193,266.457"/>
<path fill-rule="evenodd" clip-rule="evenodd" d="M57.193,263.622c0-0.275-0.224-0.5-0.5-0.5c-0.276,0-0.5,0.225-0.5,0.5
	c0,0.276,0.224,0.5,0.5,0.5C56.969,264.122,57.193,263.898,57.193,263.622"/>
<path fill-rule="evenodd" clip-rule="evenodd" d="M57.193,260.788c0-0.276-0.224-0.5-0.5-0.5c-0.276,0-0.5,0.224-0.5,0.5
	s0.224,0.5,0.5,0.5C56.969,261.288,57.193,261.064,57.193,260.788"/>
<path fill-rule="evenodd" clip-rule="evenodd" d="M57.193,257.953c0-0.276-0.224-0.5-0.5-0.5c-0.276,0-0.5,0.224-0.5,0.5
	s0.224,0.5,0.5,0.5C56.969,258.453,57.193,258.229,57.193,257.953"/>
<path fill-rule="evenodd" clip-rule="evenodd" d="M57.193,255.118c0-0.275-0.224-0.5-0.5-0.5c-0.276,0-0.5,0.225-0.5,0.5
	c0,0.276,0.224,0.5,0.5,0.5C56.969,255.618,57.193,255.394,57.193,255.118"/>
<path fill-rule="evenodd" clip-rule="evenodd" d="M57.193,252.284c0-0.276-0.224-0.5-0.5-0.5c-0.276,0-0.5,0.224-0.5,0.5
	s0.224,0.5,0.5,0.5C56.969,252.784,57.193,252.56,57.193,252.284"/>
<path fill-rule="evenodd" clip-rule="evenodd" d="M57.193,280.63c0-0.276-0.224-0.5-0.5-0.5c-0.276,0-0.5,0.224-0.5,0.5
	c0,0.275,0.224,0.5,0.5,0.5C56.969,281.13,57.193,280.906,57.193,280.63"/>
<path fill-rule="evenodd" clip-rule="evenodd" d="M57.193,277.795c0-0.276-0.224-0.5-0.5-0.5c-0.276,0-0.5,0.224-0.5,0.5
	s0.224,0.5,0.5,0.5C56.969,278.295,57.193,278.072,57.193,277.795"/>
<path fill-rule="evenodd" clip-rule="evenodd" d="M57.193,274.96c0-0.276-0.224-0.5-0.5-0.5c-0.276,0-0.5,0.224-0.5,0.5
	s0.224,0.5,0.5,0.5C56.969,275.46,57.193,275.237,57.193,274.96"/>
<path fill-rule="evenodd" clip-rule="evenodd" d="M57.193,272.126c0-0.276-0.224-0.5-0.5-0.5c-0.276,0-0.5,0.224-0.5,0.5
	c0,0.275,0.224,0.5,0.5,0.5C56.969,272.626,57.193,272.402,57.193,272.126"/>
<path fill-rule="evenodd" clip-rule="evenodd" d="M57.193,269.292c0-0.276-0.224-0.5-0.5-0.5c-0.276,0-0.5,0.224-0.5,0.5
	s0.224,0.5,0.5,0.5C56.969,269.792,57.193,269.568,57.193,269.292"/>
<path fill-rule="evenodd" clip-rule="evenodd" d="M57.193,266.457c0-0.276-0.224-0.5-0.5-0.5c-0.276,0-0.5,0.224-0.5,0.5
	s0.224,0.5,0.5,0.5C56.969,266.957,57.193,266.733,57.193,266.457"/>
<path fill-rule="evenodd" clip-rule="evenodd" d="M71.366,266.457c0-0.276-0.224-0.5-0.5-0.5c-0.276,0-0.5,0.224-0.5,0.5
	s0.224,0.5,0.5,0.5C71.142,266.957,71.366,266.733,71.366,266.457"/>
<path fill-rule="evenodd" clip-rule="evenodd" d="M71.366,263.622c0-0.275-0.224-0.5-0.5-0.5c-0.276,0-0.5,0.225-0.5,0.5
	c0,0.276,0.224,0.5,0.5,0.5C71.142,264.122,71.366,263.898,71.366,263.622"/>
<path fill-rule="evenodd" clip-rule="evenodd" d="M71.366,260.788c0-0.276-0.224-0.5-0.5-0.5c-0.276,0-0.5,0.224-0.5,0.5
	s0.224,0.5,0.5,0.5C71.142,261.288,71.366,261.064,71.366,260.788"/>
<path fill-rule="evenodd" clip-rule="evenodd" d="M71.366,257.953c0-0.276-0.224-0.5-0.5-0.5c-0.276,0-0.5,0.224-0.5,0.5
	s0.224,0.5,0.5,0.5C71.142,258.453,71.366,258.229,71.366,257.953"/>
<path fill-rule="evenodd" clip-rule="evenodd" d="M71.366,255.118c0-0.275-0.224-0.5-0.5-0.5c-0.276,0-0.5,0.225-0.5,0.5
	c0,0.276,0.224,0.5,0.5,0.5C71.142,255.618,71.366,255.394,71.366,255.118"/>
<path fill-rule="evenodd" clip-rule="evenodd" d="M71.366,252.284c0-0.276-0.224-0.5-0.5-0.5c-0.276,0-0.5,0.224-0.5,0.5
	s0.224,0.5,0.5,0.5C71.142,252.784,71.366,252.56,71.366,252.284"/>
<path fill-rule="evenodd" clip-rule="evenodd" d="M71.366,280.63c0-0.276-0.224-0.5-0.5-0.5c-0.276,0-0.5,0.224-0.5,0.5
	c0,0.275,0.224,0.5,0.5,0.5C71.142,281.13,71.366,280.906,71.366,280.63"/>
<path fill-rule="evenodd" clip-rule="evenodd" d="M71.366,277.795c0-0.276-0.224-0.5-0.5-0.5c-0.276,0-0.5,0.224-0.5,0.5
	s0.224,0.5,0.5,0.5C71.142,278.295,71.366,278.072,71.366,277.795"/>
<path fill-rule="evenodd" clip-rule="evenodd" d="M71.366,274.96c0-0.276-0.224-0.5-0.5-0.5c-0.276,0-0.5,0.224-0.5,0.5
	s0.224,0.5,0.5,0.5C71.142,275.46,71.366,275.237,71.366,274.96"/>
<path fill-rule="evenodd" clip-rule="evenodd" d="M71.366,272.126c0-0.276-0.224-0.5-0.5-0.5c-0.276,0-0.5,0.224-0.5,0.5
	c0,0.275,0.224,0.5,0.5,0.5C71.142,272.626,71.366,272.402,71.366,272.126"/>
<path fill-rule="evenodd" clip-rule="evenodd" d="M71.366,269.292c0-0.276-0.224-0.5-0.5-0.5c-0.276,0-0.5,0.224-0.5,0.5
	s0.224,0.5,0.5,0.5C71.142,269.792,71.366,269.568,71.366,269.292"/>
<path fill-rule="evenodd" clip-rule="evenodd" d="M71.366,266.457c0-0.276-0.224-0.5-0.5-0.5c-0.276,0-0.5,0.224-0.5,0.5
	s0.224,0.5,0.5,0.5C71.142,266.957,71.366,266.733,71.366,266.457"/>
<line fill="none" stroke="#000000" stroke-width="5.6693" stroke-miterlimit="10" x1="79.37" y1="243.78" x2="99.212" y2="243.78"/>
<path fill-rule="evenodd" clip-rule="evenodd" d="M82.705,252.284c0-0.276-0.224-0.5-0.5-0.5c-0.276,0-0.5,0.224-0.5,0.5
	s0.224,0.5,0.5,0.5C82.481,252.784,82.705,252.56,82.705,252.284"/>
<path fill-rule="evenodd" clip-rule="evenodd" d="M85.54,252.284c0-0.276-0.224-0.5-0.5-0.5c-0.276,0-0.5,0.224-0.5,0.5
	s0.224,0.5,0.5,0.5C85.315,252.784,85.54,252.56,85.54,252.284"/>
<path fill-rule="evenodd" clip-rule="evenodd" d="M88.374,252.284c0-0.276-0.224-0.5-0.5-0.5s-0.5,0.224-0.5,0.5s0.224,0.5,0.5,0.5
	S88.374,252.56,88.374,252.284"/>
<path fill-rule="evenodd" clip-rule="evenodd" d="M91.208,252.284c0-0.276-0.224-0.5-0.5-0.5c-0.276,0-0.5,0.224-0.5,0.5
	s0.224,0.5,0.5,0.5C90.985,252.784,91.208,252.56,91.208,252.284"/>
<path fill-rule="evenodd" clip-rule="evenodd" d="M94.043,252.284c0-0.276-0.224-0.5-0.5-0.5c-0.276,0-0.5,0.224-0.5,0.5
	s0.224,0.5,0.5,0.5C93.819,252.784,94.043,252.56,94.043,252.284"/>
<path fill-rule="evenodd" clip-rule="evenodd" d="M96.878,252.284c0-0.276-0.224-0.5-0.5-0.5c-0.276,0-0.5,0.224-0.5,0.5
	s0.224,0.5,0.5,0.5C96.654,252.784,96.878,252.56,96.878,252.284"/>
<path fill-rule="evenodd" clip-rule="evenodd" d="M82.705,266.457c0-0.276-0.224-0.5-0.5-0.5c-0.276,0-0.5,0.224-0.5,0.5
	s0.224,0.5,0.5,0.5C82.481,266.957,82.705,266.733,82.705,266.457"/>
<path fill-rule="evenodd" clip-rule="evenodd" d="M85.54,266.457c0-0.276-0.224-0.5-0.5-0.5c-0.276,0-0.5,0.224-0.5,0.5
	s0.224,0.5,0.5,0.5C85.315,266.957,85.54,266.733,85.54,266.457"/>
<path fill-rule="evenodd" clip-rule="evenodd" d="M88.374,266.457c0-0.276-0.224-0.5-0.5-0.5s-0.5,0.224-0.5,0.5s0.224,0.5,0.5,0.5
	S88.374,266.733,88.374,266.457"/>
<path fill-rule="evenodd" clip-rule="evenodd" d="M91.208,266.457c0-0.276-0.224-0.5-0.5-0.5c-0.276,0-0.5,0.224-0.5,0.5
	s0.224,0.5,0.5,0.5C90.985,266.957,91.208,266.733,91.208,266.457"/>
<path fill-rule="evenodd" clip-rule="evenodd" d="M94.043,266.457c0-0.276-0.224-0.5-0.5-0.5c-0.276,0-0.5,0.224-0.5,0.5
	s0.224,0.5,0.5,0.5C93.819,266.957,94.043,266.733,94.043,266.457"/>
<path fill-rule="evenodd" clip-rule="evenodd" d="M96.878,266.457c0-0.276-0.224-0.5-0.5-0.5c-0.276,0-0.5,0.224-0.5,0.5
	s0.224,0.5,0.5,0.5C96.654,266.957,96.878,266.733,96.878,266.457"/>
<path fill-rule="evenodd" clip-rule="evenodd" d="M82.705,280.63c0-0.276-0.224-0.5-0.5-0.5c-0.276,0-0.5,0.224-0.5,0.5
	c0,0.275,0.224,0.5,0.5,0.5C82.481,281.13,82.705,280.906,82.705,280.63"/>
<path fill-rule="evenodd" clip-rule="evenodd" d="M85.54,280.63c0-0.276-0.224-0.5-0.5-0.5c-0.276,0-0.5,0.224-0.5,0.5
	c0,0.275,0.224,0.5,0.5,0.5C85.315,281.13,85.54,280.906,85.54,280.63"/>
<path fill-rule="evenodd" clip-rule="evenodd" d="M88.374,280.63c0-0.276-0.224-0.5-0.5-0.5s-0.5,0.224-0.5,0.5
	c0,0.275,0.224,0.5,0.5,0.5S88.374,280.906,88.374,280.63"/>
<path fill-rule="evenodd" clip-rule="evenodd" d="M91.208,280.63c0-0.276-0.224-0.5-0.5-0.5c-0.276,0-0.5,0.224-0.5,0.5
	c0,0.275,0.224,0.5,0.5,0.5C90.985,281.13,91.208,280.906,91.208,280.63"/>
<path fill-rule="evenodd" clip-rule="evenodd" d="M94.043,280.63c0-0.276-0.224-0.5-0.5-0.5c-0.276,0-0.5,0.224-0.5,0.5
	c0,0.275,0.224,0.5,0.5,0.5C93.819,281.13,94.043,280.906,94.043,280.63"/>
<path fill-rule="evenodd" clip-rule="evenodd" d="M96.878,280.63c0-0.276-0.224-0.5-0.5-0.5c-0.276,0-0.5,0.224-0.5,0.5
	c0,0.275,0.224,0.5,0.5,0.5C96.654,281.13,96.878,280.906,96.878,280.63"/>
<path fill-rule="evenodd" clip-rule="evenodd" d="M82.705,266.457c0-0.276-0.224-0.5-0.5-0.5c-0.276,0-0.5,0.224-0.5,0.5
	s0.224,0.5,0.5,0.5C82.481,266.957,82.705,266.733,82.705,266.457"/>
<path fill-rule="evenodd" clip-rule="evenodd" d="M85.54,263.622c0-0.275-0.224-0.5-0.5-0.5c-0.276,0-0.5,0.225-0.5,0.5
	c0,0.276,0.224,0.5,0.5,0.5C85.315,264.122,85.54,263.898,85.54,263.622"/>
<path fill-rule="evenodd" clip-rule="evenodd" d="M88.374,260.788c0-0.276-0.224-0.5-0.5-0.5s-0.5,0.224-0.5,0.5s0.224,0.5,0.5,0.5
	S88.374,261.064,88.374,260.788"/>
<path fill-rule="evenodd" clip-rule="evenodd" d="M91.208,257.953c0-0.276-0.224-0.5-0.5-0.5c-0.276,0-0.5,0.224-0.5,0.5
	s0.224,0.5,0.5,0.5C90.985,258.453,91.208,258.229,91.208,257.953"/>
<path fill-rule="evenodd" clip-rule="evenodd" d="M94.043,255.118c0-0.275-0.224-0.5-0.5-0.5c-0.276,0-0.5,0.225-0.5,0.5
	c0,0.276,0.224,0.5,0.5,0.5C93.819,255.618,94.043,255.394,94.043,255.118"/>
<path fill-rule="evenodd" clip-rule="evenodd" d="M96.878,252.284c0-0.276-0.224-0.5-0.5-0.5c-0.276,0-0.5,0.224-0.5,0.5
	s0.224,0.5,0.5,0.5C96.654,252.784,96.878,252.56,96.878,252.284"/>
<path fill-rule="evenodd" clip-rule="evenodd" d="M82.705,280.63c0-0.276-0.224-0.5-0.5-0.5c-0.276,0-0.5,0.224-0.5,0.5
	c0,0.275,0.224,0.5,0.5,0.5C82.481,281.13,82.705,280.906,82.705,280.63"/>
<path fill-rule="evenodd" clip-rule="evenodd" d="M85.54,277.795c0-0.276-0.224-0.5-0.5-0.5c-0.276,0-0.5,0.224-0.5,0.5
	s0.224,0.5,0.5,0.5C85.315,278.295,85.54,278.072,85.54,277.795"/>
<path fill-rule="evenodd" clip-rule="evenodd" d="M88.374,274.96c0-0.276-0.224-0.5-0.5-0.5s-0.5,0.224-0.5,0.5s0.224,0.5,0.5,0.5
	S88.374,275.237,88.374,274.96"/>
<path fill-rule="evenodd" clip-rule="evenodd" d="M91.208,272.126c0-0.276-0.224-0.5-0.5-0.5c-0.276,0-0.5,0.224-0.5,0.5
	c0,0.275,0.224,0.5,0.5,0.5C90.985,272.626,91.208,272.402,91.208,272.126"/>
<path fill-rule="evenodd" clip-rule="evenodd" d="M94.043,269.292c0-0.276-0.224-0.5-0.5-0.5c-0.276,0-0.5,0.224-0.5,0.5
	s0.224,0.5,0.5,0.5C93.819,269.792,94.043,269.568,94.043,269.292"/>
<path fill-rule="evenodd" clip-rule="evenodd" d="M96.878,266.457c0-0.276-0.224-0.5-0.5-0.5c-0.276,0-0.5,0.224-0.5,0.5
	s0.224,0.5,0.5,0.5C96.654,266.957,96.878,266.733,96.878,266.457"/>
<path fill-rule="evenodd" clip-rule="evenodd" d="M82.705,266.457c0-0.276-0.224-0.5-0.5-0.5c-0.276,0-0.5,0.224-0.5,0.5
	s0.224,0.5,0.5,0.5C82.481,266.957,82.705,266.733,82.705,266.457"/>
<path fill-rule="evenodd" clip-rule="evenodd" d="M82.705,263.622c0-0.275-0.224-0.5-0.5-0.5c-0.276,0-0.5,0.225-0.5,0.5
	c0,0.276,0.224,0.5,0.5,0.5C82.481,264.122,82.705,263.898,82.705,263.622"/>
<path fill-rule="evenodd" clip-rule="evenodd" d="M82.705,260.788c0-0.276-0.224-0.5-0.5-0.5c-0.276,0-0.5,0.224-0.5,0.5
	s0.224,0.5,0.5,0.5C82.481,261.288,82.705,261.064,82.705,260.788"/>
<path fill-rule="evenodd" clip-rule="evenodd" d="M82.705,257.953c0-0.276-0.224-0.5-0.5-0.5c-0.276,0-0.5,0.224-0.5,0.5
	s0.224,0.5,0.5,0.5C82.481,258.453,82.705,258.229,82.705,257.953"/>
<path fill-rule="evenodd" clip-rule="evenodd" d="M82.705,255.118c0-0.275-0.224-0.5-0.5-0.5c-0.276,0-0.5,0.225-0.5,0.5
	c0,0.276,0.224,0.5,0.5,0.5C82.481,255.618,82.705,255.394,82.705,255.118"/>
<path fill-rule="evenodd" clip-rule="evenodd" d="M82.705,252.284c0-0.276-0.224-0.5-0.5-0.5c-0.276,0-0.5,0.224-0.5,0.5
	s0.224,0.5,0.5,0.5C82.481,252.784,82.705,252.56,82.705,252.284"/>
<path fill-rule="evenodd" clip-rule="evenodd" d="M82.705,280.63c0-0.276-0.224-0.5-0.5-0.5c-0.276,0-0.5,0.224-0.5,0.5
	c0,0.275,0.224,0.5,0.5,0.5C82.481,281.13,82.705,280.906,82.705,280.63"/>
<path fill-rule="evenodd" clip-rule="evenodd" d="M82.705,277.795c0-0.276-0.224-0.5-0.5-0.5c-0.276,0-0.5,0.224-0.5,0.5
	s0.224,0.5,0.5,0.5C82.481,278.295,82.705,278.072,82.705,277.795"/>
<path fill-rule="evenodd" clip-rule="evenodd" d="M82.705,274.96c0-0.276-0.224-0.5-0.5-0.5c-0.276,0-0.5,0.224-0.5,0.5
	s0.224,0.5,0.5,0.5C82.481,275.46,82.705,275.237,82.705,274.96"/>
<path fill-rule="evenodd" clip-rule="evenodd" d="M82.705,272.126c0-0.276-0.224-0.5-0.5-0.5c-0.276,0-0.5,0.224-0.5,0.5
	c0,0.275,0.224,0.5,0.5,0.5C82.481,272.626,82.705,272.402,82.705,272.126"/>
<path fill-rule="evenodd" clip-rule="evenodd" d="M82.705,269.292c0-0.276-0.224-0.5-0.5-0.5c-0.276,0-0.5,0.224-0.5,0.5
	s0.224,0.5,0.5,0.5C82.481,269.792,82.705,269.568,82.705,269.292"/>
<path fill-rule="evenodd" clip-rule="evenodd" d="M82.705,266.457c0-0.276-0.224-0.5-0.5-0.5c-0.276,0-0.5,0.224-0.5,0.5
	s0.224,0.5,0.5,0.5C82.481,266.957,82.705,266.733,82.705,266.457"/>
<path fill-rule="evenodd" clip-rule="evenodd" d="M96.878,266.457c0-0.276-0.224-0.5-0.5-0.5c-0.276,0-0.5,0.224-0.5,0.5
	s0.224,0.5,0.5,0.5C96.654,266.957,96.878,266.733,96.878,266.457"/>
<path fill-rule="evenodd" clip-rule="evenodd" d="M96.878,263.622c0-0.275-0.224-0.5-0.5-0.5c-0.276,0-0.5,0.225-0.5,0.5
	c0,0.276,0.224,0.5,0.5,0.5C96.654,264.122,96.878,263.898,96.878,263.622"/>
<path fill-rule="evenodd" clip-rule="evenodd" d="M96.878,260.788c0-0.276-0.224-0.5-0.5-0.5c-0.276,0-0.5,0.224-0.5,0.5
	s0.224,0.5,0.5,0.5C96.654,261.288,96.878,261.064,96.878,260.788"/>
<path fill-rule="evenodd" clip-rule="evenodd" d="M96.878,257.953c0-0.276-0.224-0.5-0.5-0.5c-0.276,0-0.5,0.224-0.5,0.5
	s0.224,0.5,0.5,0.5C96.654,258.453,96.878,258.229,96.878,257.953"/>
<path fill-rule="evenodd" clip-rule="evenodd" d="M96.878,255.118c0-0.275-0.224-0.5-0.5-0.5c-0.276,0-0.5,0.225-0.5,0.5
	c0,0.276,0.224,0.5,0.5,0.5C96.654,255.618,96.878,255.394,96.878,255.118"/>
<path fill-rule="evenodd" clip-rule="evenodd" d="M96.878,252.284c0-0.276-0.224-0.5-0.5-0.5c-0.276,0-0.5,0.224-0.5,0.5
	s0.224,0.5,0.5,0.5C96.654,252.784,96.878,252.56,96.878,252.284"/>
<path fill-rule="evenodd" clip-rule="evenodd" d="M96.878,280.63c0-0.276-0.224-0.5-0.5-0.5c-0.276,0-0.5,0.224-0.5,0.5
	c0,0.275,0.224,0.5,0.5,0.5C96.654,281.13,96.878,280.906,96.878,280.63"/>
<path fill-rule="evenodd" clip-rule="evenodd" d="M96.878,277.795c0-0.276-0.224-0.5-0.5-0.5c-0.276,0-0.5,0.224-0.5,0.5
	s0.224,0.5,0.5,0.5C96.654,278.295,96.878,278.072,96.878,277.795"/>
<path fill-rule="evenodd" clip-rule="evenodd" d="M96.878,274.96c0-0.276-0.224-0.5-0.5-0.5c-0.276,0-0.5,0.224-0.5,0.5
	s0.224,0.5,0.5,0.5C96.654,275.46,96.878,275.237,96.878,274.96"/>
<path fill-rule="evenodd" clip-rule="evenodd" d="M96.878,272.126c0-0.276-0.224-0.5-0.5-0.5c-0.276,0-0.5,0.224-0.5,0.5
	c0,0.275,0.224,0.5,0.5,0.5C96.654,272.626,96.878,272.402,96.878,272.126"/>
<path fill-rule="evenodd" clip-rule="evenodd" d="M96.878,269.292c0-0.276-0.224-0.5-0.5-0.5c-0.276,0-0.5,0.224-0.5,0.5
	s0.224,0.5,0.5,0.5C96.654,269.792,96.878,269.568,96.878,269.292"/>
<path fill-rule="evenodd" clip-rule="evenodd" d="M96.878,266.457c0-0.276-0.224-0.5-0.5-0.5c-0.276,0-0.5,0.224-0.5,0.5
	s0.224,0.5,0.5,0.5C96.654,266.957,96.878,266.733,96.878,266.457"/>
<line fill="none" stroke="#000000" stroke-width="5.6693" stroke-miterlimit="10" x1="104.882" y1="243.78" x2="124.725" y2="243.78"/>
<path fill-rule="evenodd" clip-rule="evenodd" d="M108.216,252.284c0-0.276-0.224-0.5-0.5-0.5c-0.276,0-0.5,0.224-0.5,0.5
	s0.224,0.5,0.5,0.5C107.993,252.784,108.216,252.56,108.216,252.284"/>
<path fill-rule="evenodd" clip-rule="evenodd" d="M111.051,252.284c0-0.276-0.224-0.5-0.5-0.5c-0.276,0-0.5,0.224-0.5,0.5
	s0.224,0.5,0.5,0.5C110.827,252.784,111.051,252.56,111.051,252.284"/>
<path fill-rule="evenodd" clip-rule="evenodd" d="M113.886,252.284c0-0.276-0.224-0.5-0.5-0.5c-0.276,0-0.5,0.224-0.5,0.5
	s0.224,0.5,0.5,0.5C113.662,252.784,113.886,252.56,113.886,252.284"/>
<path fill-rule="evenodd" clip-rule="evenodd" d="M116.721,252.284c0-0.276-0.224-0.5-0.5-0.5c-0.276,0-0.5,0.224-0.5,0.5
	s0.224,0.5,0.5,0.5C116.497,252.784,116.721,252.56,116.721,252.284"/>
<path fill-rule="evenodd" clip-rule="evenodd" d="M119.555,252.284c0-0.276-0.224-0.5-0.5-0.5c-0.276,0-0.5,0.224-0.5,0.5
	s0.224,0.5,0.5,0.5C119.331,252.784,119.555,252.56,119.555,252.284"/>
<path fill-rule="evenodd" clip-rule="evenodd" d="M122.39,252.284c0-0.276-0.224-0.5-0.5-0.5c-0.276,0-0.5,0.224-0.5,0.5
	s0.224,0.5,0.5,0.5C122.166,252.784,122.39,252.56,122.39,252.284"/>
<path fill-rule="evenodd" clip-rule="evenodd" d="M108.216,266.457c0-0.276-0.224-0.5-0.5-0.5c-0.276,0-0.5,0.224-0.5,0.5
	s0.224,0.5,0.5,0.5C107.993,266.957,108.216,266.733,108.216,266.457"/>
<path fill-rule="evenodd" clip-rule="evenodd" d="M111.051,266.457c0-0.276-0.224-0.5-0.5-0.5c-0.276,0-0.5,0.224-0.5,0.5
	s0.224,0.5,0.5,0.5C110.827,266.957,111.051,266.733,111.051,266.457"/>
<path fill-rule="evenodd" clip-rule="evenodd" d="M113.886,266.457c0-0.276-0.224-0.5-0.5-0.5c-0.276,0-0.5,0.224-0.5,0.5
	s0.224,0.5,0.5,0.5C113.662,266.957,113.886,266.733,113.886,266.457"/>
<path fill-rule="evenodd" clip-rule="evenodd" d="M116.721,266.457c0-0.276-0.224-0.5-0.5-0.5c-0.276,0-0.5,0.224-0.5,0.5
	s0.224,0.5,0.5,0.5C116.497,266.957,116.721,266.733,116.721,266.457"/>
<path fill-rule="evenodd" clip-rule="evenodd" d="M119.555,266.457c0-0.276-0.224-0.5-0.5-0.5c-0.276,0-0.5,0.224-0.5,0.5
	s0.224,0.5,0.5,0.5C119.331,266.957,119.555,266.733,119.555,266.457"/>
<path fill-rule="evenodd" clip-rule="evenodd" d="M122.39,266.457c0-0.276-0.224-0.5-0.5-0.5c-0.276,0-0.5,0.224-0.5,0.5
	s0.224,0.5,0.5,0.5C122.166,266.957,122.39,266.733,122.39,266.457"/>
<path fill-rule="evenodd" clip-rule="evenodd" d="M108.216,280.63c0-0.276-0.224-0.5-0.5-0.5c-0.276,0-0.5,0.224-0.5,0.5
	c0,0.275,0.224,0.5,0.5,0.5C107.993,281.13,108.216,280.906,108.216,280.63"/>
<path fill-rule="evenodd" clip-rule="evenodd" d="M111.051,280.63c0-0.276-0.224-0.5-0.5-0.5c-0.276,0-0.5,0.224-0.5,0.5
	c0,0.275,0.224,0.5,0.5,0.5C110.827,281.13,111.051,280.906,111.051,280.63"/>
<path fill-rule="evenodd" clip-rule="evenodd" d="M113.886,280.63c0-0.276-0.224-0.5-0.5-0.5c-0.276,0-0.5,0.224-0.5,0.5
	c0,0.275,0.224,0.5,0.5,0.5C113.662,281.13,113.886,280.906,113.886,280.63"/>
<path fill-rule="evenodd" clip-rule="evenodd" d="M116.721,280.63c0-0.276-0.224-0.5-0.5-0.5c-0.276,0-0.5,0.224-0.5,0.5
	c0,0.275,0.224,0.5,0.5,0.5C116.497,281.13,116.721,280.906,116.721,280.63"/>
<path fill-rule="evenodd" clip-rule="evenodd" d="M119.555,280.63c0-0.276-0.224-0.5-0.5-0.5c-0.276,0-0.5,0.224-0.5,0.5
	c0,0.275,0.224,0.5,0.5,0.5C119.331,281.13,119.555,280.906,119.555,280.63"/>
<path fill-rule="evenodd" clip-rule="evenodd" d="M122.39,280.63c0-0.276-0.224-0.5-0.5-0.5c-0.276,0-0.5,0.224-0.5,0.5
	c0,0.275,0.224,0.5,0.5,0.5C122.166,281.13,122.39,280.906,122.39,280.63"/>
<path fill-rule="evenodd" clip-rule="evenodd" d="M108.216,266.457c0-0.276-0.224-0.5-0.5-0.5c-0.276,0-0.5,0.224-0.5,0.5
	s0.224,0.5,0.5,0.5C107.993,266.957,108.216,266.733,108.216,266.457"/>
<path fill-rule="evenodd" clip-rule="evenodd" d="M111.051,263.622c0-0.275-0.224-0.5-0.5-0.5c-0.276,0-0.5,0.225-0.5,0.5
	c0,0.276,0.224,0.5,0.5,0.5C110.827,264.122,111.051,263.898,111.051,263.622"/>
<path fill-rule="evenodd" clip-rule="evenodd" d="M113.886,260.788c0-0.276-0.224-0.5-0.5-0.5c-0.276,0-0.5,0.224-0.5,0.5
	s0.224,0.5,0.5,0.5C113.662,261.288,113.886,261.064,113.886,260.788"/>
<path fill-rule="evenodd" clip-rule="evenodd" d="M116.721,257.953c0-0.276-0.224-0.5-0.5-0.5c-0.276,0-0.5,0.224-0.5,0.5
	s0.224,0.5,0.5,0.5C116.497,258.453,116.721,258.229,116.721,257.953"/>
<path fill-rule="evenodd" clip-rule="evenodd" d="M119.555,255.118c0-0.275-0.224-0.5-0.5-0.5c-0.276,0-0.5,0.225-0.5,0.5
	c0,0.276,0.224,0.5,0.5,0.5C119.331,255.618,119.555,255.394,119.555,255.118"/>
<path fill-rule="evenodd" clip-rule="evenodd" d="M122.39,252.284c0-0.276-0.224-0.5-0.5-0.5c-0.276,0-0.5,0.224-0.5,0.5
	s0.224,0.5,0.5,0.5C122.166,252.784,122.39,252.56,122.39,252.284"/>
<path fill-rule="evenodd" clip-rule="evenodd" d="M108.216,280.63c0-0.276-0.224-0.5-0.5-0.5c-0.276,0-0.5,0.224-0.5,0.5
	c0,0.275,0.224,0.5,0.5,0.5C107.993,281.13,108.216,280.906,108.216,280.63"/>
<path fill-rule="evenodd" clip-rule="evenodd" d="M111.051,277.795c0-0.276-0.224-0.5-0.5-0.5c-0.276,0-0.5,0.224-0.5,0.5
	s0.224,0.5,0.5,0.5C110.827,278.295,111.051,278.072,111.051,277.795"/>
<path fill-rule="evenodd" clip-rule="evenodd" d="M113.886,274.96c0-0.276-0.224-0.5-0.5-0.5c-0.276,0-0.5,0.224-0.5,0.5
	s0.224,0.5,0.5,0.5C113.662,275.46,113.886,275.237,113.886,274.96"/>
<path fill-rule="evenodd" clip-rule="evenodd" d="M116.721,272.126c0-0.276-0.224-0.5-0.5-0.5c-0.276,0-0.5,0.224-0.5,0.5
	c0,0.275,0.224,0.5,0.5,0.5C116.497,272.626,116.721,272.402,116.721,272.126"/>
<path fill-rule="evenodd" clip-rule="evenodd" d="M119.555,269.292c0-0.276-0.224-0.5-0.5-0.5c-0.276,0-0.5,0.224-0.5,0.5
	s0.224,0.5,0.5,0.5C119.331,269.792,119.555,269.568,119.555,269.292"/>
<path fill-rule="evenodd" clip-rule="evenodd" d="M122.39,266.457c0-0.276-0.224-0.5-0.5-0.5c-0.276,0-0.5,0.224-0.5,0.5
	s0.224,0.5,0.5,0.5C122.166,266.957,122.39,266.733,122.39,266.457"/>
<path fill-rule="evenodd" clip-rule="evenodd" d="M108.216,266.457c0-0.276-0.224-0.5-0.5-0.5c-0.276,0-0.5,0.224-0.5,0.5
	s0.224,0.5,0.5,0.5C107.993,266.957,108.216,266.733,108.216,266.457"/>
<path fill-rule="evenodd" clip-rule="evenodd" d="M108.216,263.622c0-0.275-0.224-0.5-0.5-0.5c-0.276,0-0.5,0.225-0.5,0.5
	c0,0.276,0.224,0.5,0.5,0.5C107.993,264.122,108.216,263.898,108.216,263.622"/>
<path fill-rule="evenodd" clip-rule="evenodd" d="M108.216,260.788c0-0.276-0.224-0.5-0.5-0.5c-0.276,0-0.5,0.224-0.5,0.5
	s0.224,0.5,0.5,0.5C107.993,261.288,108.216,261.064,108.216,260.788"/>
<path fill-rule="evenodd" clip-rule="evenodd" d="M108.216,257.953c0-0.276-0.224-0.5-0.5-0.5c-0.276,0-0.5,0.224-0.5,0.5
	s0.224,0.5,0.5,0.5C107.993,258.453,108.216,258.229,108.216,257.953"/>
<path fill-rule="evenodd" clip-rule="evenodd" d="M108.216,255.118c0-0.275-0.224-0.5-0.5-0.5c-0.276,0-0.5,0.225-0.5,0.5
	c0,0.276,0.224,0.5,0.5,0.5C107.993,255.618,108.216,255.394,108.216,255.118"/>
<path fill-rule="evenodd" clip-rule="evenodd" d="M108.216,252.284c0-0.276-0.224-0.5-0.5-0.5c-0.276,0-0.5,0.224-0.5,0.5
	s0.224,0.5,0.5,0.5C107.993,252.784,108.216,252.56,108.216,252.284"/>
<path fill-rule="evenodd" clip-rule="evenodd" d="M108.216,280.63c0-0.276-0.224-0.5-0.5-0.5c-0.276,0-0.5,0.224-0.5,0.5
	c0,0.275,0.224,0.5,0.5,0.5C107.993,281.13,108.216,280.906,108.216,280.63"/>
<path fill-rule="evenodd" clip-rule="evenodd" d="M108.216,277.795c0-0.276-0.224-0.5-0.5-0.5c-0.276,0-0.5,0.224-0.5,0.5
	s0.224,0.5,0.5,0.5C107.993,278.295,108.216,278.072,108.216,277.795"/>
<path fill-rule="evenodd" clip-rule="evenodd" d="M108.216,274.96c0-0.276-0.224-0.5-0.5-0.5c-0.276,0-0.5,0.224-0.5,0.5
	s0.224,0.5,0.5,0.5C107.993,275.46,108.216,275.237,108.216,274.96"/>
<path fill-rule="evenodd" clip-rule="evenodd" d="M108.216,272.126c0-0.276-0.224-0.5-0.5-0.5c-0.276,0-0.5,0.224-0.5,0.5
	c0,0.275,0.224,0.5,0.5,0.5C107.993,272.626,108.216,272.402,108.216,272.126"/>
<path fill-rule="evenodd" clip-rule="evenodd" d="M108.216,269.292c0-0.276-0.224-0.5-0.5-0.5c-0.276,0-0.5,0.224-0.5,0.5
	s0.224,0.5,0.5,0.5C107.993,269.792,108.216,269.568,108.216,269.292"/>
<path fill-rule="evenodd" clip-rule="evenodd" d="M108.216,266.457c0-0.276-0.224-0.5-0.5-0.5c-0.276,0-0.5,0.224-0.5,0.5
	s0.224,0.5,0.5,0.5C107.993,266.957,108.216,266.733,108.216,266.457"/>
<path fill-rule="evenodd" clip-rule="evenodd" d="M122.39,266.457c0-0.276-0.224-0.5-0.5-0.5c-0.276,0-0.5,0.224-0.5,0.5
	s0.224,0.5,0.5,0.5C122.166,266.957,122.39,266.733,122.39,266.457"/>
<path fill-rule="evenodd" clip-rule="evenodd" d="M122.39,263.622c0-0.275-0.224-0.5-0.5-0.5c-0.276,0-0.5,0.225-0.5,0.5
	c0,0.276,0.224,0.5,0.5,0.5C122.166,264.122,122.39,263.898,122.39,263.622"/>
<path fill-rule="evenodd" clip-rule="evenodd" d="M122.39,260.788c0-0.276-0.224-0.5-0.5-0.5c-0.276,0-0.5,0.224-0.5,0.5
	s0.224,0.5,0.5,0.5C122.166,261.288,122.39,261.064,122.39,260.788"/>
<path fill-rule="evenodd" clip-rule="evenodd" d="M122.39,257.953c0-0.276-0.224-0.5-0.5-0.5c-0.276,0-0.5,0.224-0.5,0.5
	s0.224,0.5,0.5,0.5C122.166,258.453,122.39,258.229,122.39,257.953"/>
<path fill-rule="evenodd" clip-rule="evenodd" d="M122.39,255.118c0-0.275-0.224-0.5-0.5-0.5c-0.276,0-0.5,0.225-0.5,0.5
	c0,0.276,0.224,0.5,0.5,0.5C122.166,255.618,122.39,255.394,122.39,255.118"/>
<path fill-rule="evenodd" clip-rule="evenodd" d="M122.39,252.284c0-0.276-0.224-0.5-0.5-0.5c-0.276,0-0.5,0.224-0.5,0.5
	s0.224,0.5,0.5,0.5C122.166,252.784,122.39,252.56,122.39,252.284"/>
<path fill-rule="evenodd" clip-rule="evenodd" d="M122.39,280.63c0-0.276-0.224-0.5-0.5-0.5c-0.276,0-0.5,0.224-0.5,0.5
	c0,0.275,0.224,0.5,0.5,0.5C122.166,281.13,122.39,280.906,122.39,280.63"/>
<path fill-rule="evenodd" clip-rule="evenodd" d="M122.39,277.795c0-0.276-0.224-0.5-0.5-0.5c-0.276,0-0.5,0.224-0.5,0.5
	s0.224,0.5,0.5,0.5C122.166,278.295,122.39,278.072,122.39,277.795"/>
<path fill-rule="evenodd" clip-rule="evenodd" d="M122.39,274.96c0-0.276-0.224-0.5-0.5-0.5c-0.276,0-0.5,0.224-0.5,0.5
	s0.224,0.5,0.5,0.5C122.166,275.46,122.39,275.237,122.39,274.96"/>
<path fill-rule="evenodd" clip-rule="evenodd" d="M122.39,272.126c0-0.276-0.224-0.5-0.5-0.5c-0.276,0-0.5,0.224-0.5,0.5
	c0,0.275,0.224,0.5,0.5,0.5C122.166,272.626,122.39,272.402,122.39,272.126"/>
<path fill-rule="evenodd" clip-rule="evenodd" d="M122.39,269.292c0-0.276-0.224-0.5-0.5-0.5c-0.276,0-0.5,0.224-0.5,0.5
	s0.224,0.5,0.5,0.5C122.166,269.792,122.39,269.568,122.39,269.292"/>
<path fill-rule="evenodd" clip-rule="evenodd" d="M122.39,266.457c0-0.276-0.224-0.5-0.5-0.5c-0.276,0-0.5,0.224-0.5,0.5
	s0.224,0.5,0.5,0.5C122.166,266.957,122.39,266.733,122.39,266.457"/>
<line fill="none" stroke="#000000" stroke-width="5.6693" stroke-miterlimit="10" x1="130.394" y1="243.78" x2="150.236" y2="243.78"/>
<path fill-rule="evenodd" clip-rule="evenodd" d="M133.729,252.284c0-0.276-0.224-0.5-0.5-0.5c-0.276,0-0.5,0.224-0.5,0.5
	s0.224,0.5,0.5,0.5C133.504,252.784,133.729,252.56,133.729,252.284"/>
<path fill-rule="evenodd" clip-rule="evenodd" d="M136.563,252.284c0-0.276-0.224-0.5-0.5-0.5s-0.5,0.224-0.5,0.5s0.224,0.5,0.5,0.5
	S136.563,252.56,136.563,252.284"/>
<path fill-rule="evenodd" clip-rule="evenodd" d="M139.397,252.284c0-0.276-0.224-0.5-0.5-0.5c-0.276,0-0.5,0.224-0.5,0.5
	s0.224,0.5,0.5,0.5C139.174,252.784,139.397,252.56,139.397,252.284"/>
<path fill-rule="evenodd" clip-rule="evenodd" d="M142.232,252.284c0-0.276-0.224-0.5-0.5-0.5c-0.276,0-0.5,0.224-0.5,0.5
	s0.224,0.5,0.5,0.5C142.008,252.784,142.232,252.56,142.232,252.284"/>
<path fill-rule="evenodd" clip-rule="evenodd" d="M145.067,252.284c0-0.276-0.224-0.5-0.5-0.5c-0.276,0-0.5,0.224-0.5,0.5
	s0.224,0.5,0.5,0.5C144.843,252.784,145.067,252.56,145.067,252.284"/>
<path fill-rule="evenodd" clip-rule="evenodd" d="M147.901,252.284c0-0.276-0.224-0.5-0.5-0.5c-0.276,0-0.5,0.224-0.5,0.5
	s0.224,0.5,0.5,0.5C147.678,252.784,147.901,252.56,147.901,252.284"/>
<path fill-rule="evenodd" clip-rule="evenodd" d="M133.729,266.457c0-0.276-0.224-0.5-0.5-0.5c-0.276,0-0.5,0.224-0.5,0.5
	s0.224,0.5,0.5,0.5C133.504,266.957,133.729,266.733,133.729,266.457"/>
<path fill-rule="evenodd" clip-rule="evenodd" d="M136.563,266.457c0-0.276-0.224-0.5-0.5-0.5s-0.5,0.224-0.5,0.5s0.224,0.5,0.5,0.5
	S136.563,266.733,136.563,266.457"/>
<path fill-rule="evenodd" clip-rule="evenodd" d="M139.397,266.457c0-0.276-0.224-0.5-0.5-0.5c-0.276,0-0.5,0.224-0.5,0.5
	s0.224,0.5,0.5,0.5C139.174,266.957,139.397,266.733,139.397,266.457"/>
<path fill-rule="evenodd" clip-rule="evenodd" d="M142.232,266.457c0-0.276-0.224-0.5-0.5-0.5c-0.276,0-0.5,0.224-0.5,0.5
	s0.224,0.5,0.5,0.5C142.008,266.957,142.232,266.733,142.232,266.457"/>
<path fill-rule="evenodd" clip-rule="evenodd" d="M145.067,266.457c0-0.276-0.224-0.5-0.5-0.5c-0.276,0-0.5,0.224-0.5,0.5
	s0.224,0.5,0.5,0.5C144.843,266.957,145.067,266.733,145.067,266.457"/>
<path fill-rule="evenodd" clip-rule="evenodd" d="M147.901,266.457c0-0.276-0.224-0.5-0.5-0.5c-0.276,0-0.5,0.224-0.5,0.5
	s0.224,0.5,0.5,0.5C147.678,266.957,147.901,266.733,147.901,266.457"/>
<path fill-rule="evenodd" clip-rule="evenodd" d="M133.729,280.63c0-0.276-0.224-0.5-0.5-0.5c-0.276,0-0.5,0.224-0.5,0.5
	c0,0.275,0.224,0.5,0.5,0.5C133.504,281.13,133.729,280.906,133.729,280.63"/>
<path fill-rule="evenodd" clip-rule="evenodd" d="M136.563,280.63c0-0.276-0.224-0.5-0.5-0.5s-0.5,0.224-0.5,0.5
	c0,0.275,0.224,0.5,0.5,0.5S136.563,280.906,136.563,280.63"/>
<path fill-rule="evenodd" clip-rule="evenodd" d="M139.397,280.63c0-0.276-0.224-0.5-0.5-0.5c-0.276,0-0.5,0.224-0.5,0.5
	c0,0.275,0.224,0.5,0.5,0.5C139.174,281.13,139.397,280.906,139.397,280.63"/>
<path fill-rule="evenodd" clip-rule="evenodd" d="M142.232,280.63c0-0.276-0.224-0.5-0.5-0.5c-0.276,0-0.5,0.224-0.5,0.5
	c0,0.275,0.224,0.5,0.5,0.5C142.008,281.13,142.232,280.906,142.232,280.63"/>
<path fill-rule="evenodd" clip-rule="evenodd" d="M145.067,280.63c0-0.276-0.224-0.5-0.5-0.5c-0.276,0-0.5,0.224-0.5,0.5
	c0,0.275,0.224,0.5,0.5,0.5C144.843,281.13,145.067,280.906,145.067,280.63"/>
<path fill-rule="evenodd" clip-rule="evenodd" d="M147.901,280.63c0-0.276-0.224-0.5-0.5-0.5c-0.276,0-0.5,0.224-0.5,0.5
	c0,0.275,0.224,0.5,0.5,0.5C147.678,281.13,147.901,280.906,147.901,280.63"/>
<path fill-rule="evenodd" clip-rule="evenodd" d="M133.729,266.457c0-0.276-0.224-0.5-0.5-0.5c-0.276,0-0.5,0.224-0.5,0.5
	s0.224,0.5,0.5,0.5C133.504,266.957,133.729,266.733,133.729,266.457"/>
<path fill-rule="evenodd" clip-rule="evenodd" d="M136.563,263.622c0-0.275-0.224-0.5-0.5-0.5s-0.5,0.225-0.5,0.5
	c0,0.276,0.224,0.5,0.5,0.5S136.563,263.898,136.563,263.622"/>
<path fill-rule="evenodd" clip-rule="evenodd" d="M139.397,260.788c0-0.276-0.224-0.5-0.5-0.5c-0.276,0-0.5,0.224-0.5,0.5
	s0.224,0.5,0.5,0.5C139.174,261.288,139.397,261.064,139.397,260.788"/>
<path fill-rule="evenodd" clip-rule="evenodd" d="M142.232,257.953c0-0.276-0.224-0.5-0.5-0.5c-0.276,0-0.5,0.224-0.5,0.5
	s0.224,0.5,0.5,0.5C142.008,258.453,142.232,258.229,142.232,257.953"/>
<path fill-rule="evenodd" clip-rule="evenodd" d="M145.067,255.118c0-0.275-0.224-0.5-0.5-0.5c-0.276,0-0.5,0.225-0.5,0.5
	c0,0.276,0.224,0.5,0.5,0.5C144.843,255.618,145.067,255.394,145.067,255.118"/>
<path fill-rule="evenodd" clip-rule="evenodd" d="M147.901,252.284c0-0.276-0.224-0.5-0.5-0.5c-0.276,0-0.5,0.224-0.5,0.5
	s0.224,0.5,0.5,0.5C147.678,252.784,147.901,252.56,147.901,252.284"/>
<path fill-rule="evenodd" clip-rule="evenodd" d="M133.729,280.63c0-0.276-0.224-0.5-0.5-0.5c-0.276,0-0.5,0.224-0.5,0.5
	c0,0.275,0.224,0.5,0.5,0.5C133.504,281.13,133.729,280.906,133.729,280.63"/>
<path fill-rule="evenodd" clip-rule="evenodd" d="M136.563,277.795c0-0.276-0.224-0.5-0.5-0.5s-0.5,0.224-0.5,0.5s0.224,0.5,0.5,0.5
	S136.563,278.072,136.563,277.795"/>
<path fill-rule="evenodd" clip-rule="evenodd" d="M139.397,274.96c0-0.276-0.224-0.5-0.5-0.5c-0.276,0-0.5,0.224-0.5,0.5
	s0.224,0.5,0.5,0.5C139.174,275.46,139.397,275.237,139.397,274.96"/>
<path fill-rule="evenodd" clip-rule="evenodd" d="M142.232,272.126c0-0.276-0.224-0.5-0.5-0.5c-0.276,0-0.5,0.224-0.5,0.5
	c0,0.275,0.224,0.5,0.5,0.5C142.008,272.626,142.232,272.402,142.232,272.126"/>
<path fill-rule="evenodd" clip-rule="evenodd" d="M145.067,269.292c0-0.276-0.224-0.5-0.5-0.5c-0.276,0-0.5,0.224-0.5,0.5
	s0.224,0.5,0.5,0.5C144.843,269.792,145.067,269.568,145.067,269.292"/>
<path fill-rule="evenodd" clip-rule="evenodd" d="M147.901,266.457c0-0.276-0.224-0.5-0.5-0.5c-0.276,0-0.5,0.224-0.5,0.5
	s0.224,0.5,0.5,0.5C147.678,266.957,147.901,266.733,147.901,266.457"/>
<path fill-rule="evenodd" clip-rule="evenodd" d="M133.729,266.457c0-0.276-0.224-0.5-0.5-0.5c-0.276,0-0.5,0.224-0.5,0.5
	s0.224,0.5,0.5,0.5C133.504,266.957,133.729,266.733,133.729,266.457"/>
<path fill-rule="evenodd" clip-rule="evenodd" d="M133.729,263.622c0-0.275-0.224-0.5-0.5-0.5c-0.276,0-0.5,0.225-0.5,0.5
	c0,0.276,0.224,0.5,0.5,0.5C133.504,264.122,133.729,263.898,133.729,263.622"/>
<path fill-rule="evenodd" clip-rule="evenodd" d="M133.729,260.788c0-0.276-0.224-0.5-0.5-0.5c-0.276,0-0.5,0.224-0.5,0.5
	s0.224,0.5,0.5,0.5C133.504,261.288,133.729,261.064,133.729,260.788"/>
<path fill-rule="evenodd" clip-rule="evenodd" d="M133.729,257.953c0-0.276-0.224-0.5-0.5-0.5c-0.276,0-0.5,0.224-0.5,0.5
	s0.224,0.5,0.5,0.5C133.504,258.453,133.729,258.229,133.729,257.953"/>
<path fill-rule="evenodd" clip-rule="evenodd" d="M133.729,255.118c0-0.275-0.224-0.5-0.5-0.5c-0.276,0-0.5,0.225-0.5,0.5
	c0,0.276,0.224,0.5,0.5,0.5C133.504,255.618,133.729,255.394,133.729,255.118"/>
<path fill-rule="evenodd" clip-rule="evenodd" d="M133.729,252.284c0-0.276-0.224-0.5-0.5-0.5c-0.276,0-0.5,0.224-0.5,0.5
	s0.224,0.5,0.5,0.5C133.504,252.784,133.729,252.56,133.729,252.284"/>
<path fill-rule="evenodd" clip-rule="evenodd" d="M133.729,280.63c0-0.276-0.224-0.5-0.5-0.5c-0.276,0-0.5,0.224-0.5,0.5
	c0,0.275,0.224,0.5,0.5,0.5C133.504,281.13,133.729,280.906,133.729,280.63"/>
<path fill-rule="evenodd" clip-rule="evenodd" d="M133.729,277.795c0-0.276-0.224-0.5-0.5-0.5c-0.276,0-0.5,0.224-0.5,0.5
	s0.224,0.5,0.5,0.5C133.504,278.295,133.729,278.072,133.729,277.795"/>
<path fill-rule="evenodd" clip-rule="evenodd" d="M133.729,274.96c0-0.276-0.224-0.5-0.5-0.5c-0.276,0-0.5,0.224-0.5,0.5
	s0.224,0.5,0.5,0.5C133.504,275.46,133.729,275.237,133.729,274.96"/>
<path fill-rule="evenodd" clip-rule="evenodd" d="M133.729,272.126c0-0.276-0.224-0.5-0.5-0.5c-0.276,0-0.5,0.224-0.5,0.5
	c0,0.275,0.224,0.5,0.5,0.5C133.504,272.626,133.729,272.402,133.729,272.126"/>
<path fill-rule="evenodd" clip-rule="evenodd" d="M133.729,269.292c0-0.276-0.224-0.5-0.5-0.5c-0.276,0-0.5,0.224-0.5,0.5
	s0.224,0.5,0.5,0.5C133.504,269.792,133.729,269.568,133.729,269.292"/>
<path fill-rule="evenodd" clip-rule="evenodd" d="M133.729,266.457c0-0.276-0.224-0.5-0.5-0.5c-0.276,0-0.5,0.224-0.5,0.5
	s0.224,0.5,0.5,0.5C133.504,266.957,133.729,266.733,133.729,266.457"/>
<path fill-rule="evenodd" clip-rule="evenodd" d="M147.901,266.457c0-0.276-0.224-0.5-0.5-0.5c-0.276,0-0.5,0.224-0.5,0.5
	s0.224,0.5,0.5,0.5C147.678,266.957,147.901,266.733,147.901,266.457"/>
<path fill-rule="evenodd" clip-rule="evenodd" d="M147.901,263.622c0-0.275-0.224-0.5-0.5-0.5c-0.276,0-0.5,0.225-0.5,0.5
	c0,0.276,0.224,0.5,0.5,0.5C147.678,264.122,147.901,263.898,147.901,263.622"/>
<path fill-rule="evenodd" clip-rule="evenodd" d="M147.901,260.788c0-0.276-0.224-0.5-0.5-0.5c-0.276,0-0.5,0.224-0.5,0.5
	s0.224,0.5,0.5,0.5C147.678,261.288,147.901,261.064,147.901,260.788"/>
<path fill-rule="evenodd" clip-rule="evenodd" d="M147.901,257.953c0-0.276-0.224-0.5-0.5-0.5c-0.276,0-0.5,0.224-0.5,0.5
	s0.224,0.5,0.5,0.5C147.678,258.453,147.901,258.229,147.901,257.953"/>
<path fill-rule="evenodd" clip-rule="evenodd" d="M147.901,255.118c0-0.275-0.224-0.5-0.5-0.5c-0.276,0-0.5,0.225-0.5,0.5
	c0,0.276,0.224,0.5,0.5,0.5C147.678,255.618,147.901,255.394,147.901,255.118"/>
<path fill-rule="evenodd" clip-rule="evenodd" d="M147.901,252.284c0-0.276-0.224-0.5-0.5-0.5c-0.276,0-0.5,0.224-0.5,0.5
	s0.224,0.5,0.5,0.5C147.678,252.784,147.901,252.56,147.901,252.284"/>
<path fill-rule="evenodd" clip-rule="evenodd" d="M147.901,280.63c0-0.276-0.224-0.5-0.5-0.5c-0.276,0-0.5,0.224-0.5,0.5
	c0,0.275,0.224,0.5,0.5,0.5C147.678,281.13,147.901,280.906,147.901,280.63"/>
<path fill-rule="evenodd" clip-rule="evenodd" d="M147.901,277.795c0-0.276-0.224-0.5-0.5-0.5c-0.276,0-0.5,0.224-0.5,0.5
	s0.224,0.5,0.5,0.5C147.678,278.295,147.901,278.072,147.901,277.795"/>
<path fill-rule="evenodd" clip-rule="evenodd" d="M147.901,274.96c0-0.276-0.224-0.5-0.5-0.5c-0.276,0-0.5,0.224-0.5,0.5
	s0.224,0.5,0.5,0.5C147.678,275.46,147.901,275.237,147.901,274.96"/>
<path fill-rule="evenodd" clip-rule="evenodd" d="M147.901,272.126c0-0.276-0.224-0.5-0.5-0.5c-0.276,0-0.5,0.224-0.5,0.5
	c0,0.275,0.224,0.5,0.5,0.5C147.678,272.626,147.901,272.402,147.901,272.126"/>
<path fill-rule="evenodd" clip-rule="evenodd" d="M147.901,269.292c0-0.276-0.224-0.5-0.5-0.5c-0.276,0-0.5,0.224-0.5,0.5
	s0.224,0.5,0.5,0.5C147.678,269.792,147.901,269.568,147.901,269.292"/>
<path fill-rule="evenodd" clip-rule="evenodd" d="M147.901,266.457c0-0.276-0.224-0.5-0.5-0.5c-0.276,0-0.5,0.224-0.5,0.5
	s0.224,0.5,0.5,0.5C147.678,266.957,147.901,266.733,147.901,266.457"/>
<line fill="none" stroke="#000000" stroke-width="5.6693" stroke-miterlimit="10" x1="155.905" y1="243.78" x2="175.748" y2="243.78"/>
<path fill-rule="evenodd" clip-rule="evenodd" d="M159.24,252.284c0-0.276-0.224-0.5-0.5-0.5c-0.276,0-0.5,0.224-0.5,0.5
	s0.224,0.5,0.5,0.5C159.016,252.784,159.24,252.56,159.24,252.284"/>
<path fill-rule="evenodd" clip-rule="evenodd" d="M162.075,252.284c0-0.276-0.224-0.5-0.5-0.5c-0.276,0-0.5,0.224-0.5,0.5
	s0.224,0.5,0.5,0.5C161.851,252.784,162.075,252.56,162.075,252.284"/>
<path fill-rule="evenodd" clip-rule="evenodd" d="M164.91,252.284c0-0.276-0.224-0.5-0.5-0.5c-0.276,0-0.5,0.224-0.5,0.5
	s0.224,0.5,0.5,0.5C164.686,252.784,164.91,252.56,164.91,252.284"/>
<path fill-rule="evenodd" clip-rule="evenodd" d="M167.744,252.284c0-0.276-0.224-0.5-0.5-0.5c-0.276,0-0.5,0.224-0.5,0.5
	s0.224,0.5,0.5,0.5C167.52,252.784,167.744,252.56,167.744,252.284"/>
<path fill-rule="evenodd" clip-rule="evenodd" d="M170.579,252.284c0-0.276-0.224-0.5-0.5-0.5c-0.276,0-0.5,0.224-0.5,0.5
	s0.224,0.5,0.5,0.5C170.355,252.784,170.579,252.56,170.579,252.284"/>
<path fill-rule="evenodd" clip-rule="evenodd" d="M173.414,252.284c0-0.276-0.224-0.5-0.5-0.5c-0.276,0-0.5,0.224-0.5,0.5
	s0.224,0.5,0.5,0.5C173.189,252.784,173.414,252.56,173.414,252.284"/>
<path fill-rule="evenodd" clip-rule="evenodd" d="M159.24,266.457c0-0.276-0.224-0.5-0.5-0.5c-0.276,0-0.5,0.224-0.5,0.5
	s0.224,0.5,0.5,0.5C159.016,266.957,159.24,266.733,159.24,266.457"/>
<path fill-rule="evenodd" clip-rule="evenodd" d="M162.075,266.457c0-0.276-0.224-0.5-0.5-0.5c-0.276,0-0.5,0.224-0.5,0.5
	s0.224,0.5,0.5,0.5C161.851,266.957,162.075,266.733,162.075,266.457"/>
<path fill-rule="evenodd" clip-rule="evenodd" d="M164.91,266.457c0-0.276-0.224-0.5-0.5-0.5c-0.276,0-0.5,0.224-0.5,0.5
	s0.224,0.5,0.5,0.5C164.686,266.957,164.91,266.733,164.91,266.457"/>
<path fill-rule="evenodd" clip-rule="evenodd" d="M167.744,266.457c0-0.276-0.224-0.5-0.5-0.5c-0.276,0-0.5,0.224-0.5,0.5
	s0.224,0.5,0.5,0.5C167.52,266.957,167.744,266.733,167.744,266.457"/>
<path fill-rule="evenodd" clip-rule="evenodd" d="M170.579,266.457c0-0.276-0.224-0.5-0.5-0.5c-0.276,0-0.5,0.224-0.5,0.5
	s0.224,0.5,0.5,0.5C170.355,266.957,170.579,266.733,170.579,266.457"/>
<path fill-rule="evenodd" clip-rule="evenodd" d="M173.414,266.457c0-0.276-0.224-0.5-0.5-0.5c-0.276,0-0.5,0.224-0.5,0.5
	s0.224,0.5,0.5,0.5C173.189,266.957,173.414,266.733,173.414,266.457"/>
<path fill-rule="evenodd" clip-rule="evenodd" d="M159.24,280.63c0-0.276-0.224-0.5-0.5-0.5c-0.276,0-0.5,0.224-0.5,0.5
	c0,0.275,0.224,0.5,0.5,0.5C159.016,281.13,159.24,280.906,159.24,280.63"/>
<path fill-rule="evenodd" clip-rule="evenodd" d="M162.075,280.63c0-0.276-0.224-0.5-0.5-0.5c-0.276,0-0.5,0.224-0.5,0.5
	c0,0.275,0.224,0.5,0.5,0.5C161.851,281.13,162.075,280.906,162.075,280.63"/>
<path fill-rule="evenodd" clip-rule="evenodd" d="M164.91,280.63c0-0.276-0.224-0.5-0.5-0.5c-0.276,0-0.5,0.224-0.5,0.5
	c0,0.275,0.224,0.5,0.5,0.5C164.686,281.13,164.91,280.906,164.91,280.63"/>
<path fill-rule="evenodd" clip-rule="evenodd" d="M167.744,280.63c0-0.276-0.224-0.5-0.5-0.5c-0.276,0-0.5,0.224-0.5,0.5
	c0,0.275,0.224,0.5,0.5,0.5C167.52,281.13,167.744,280.906,167.744,280.63"/>
<path fill-rule="evenodd" clip-rule="evenodd" d="M170.579,280.63c0-0.276-0.224-0.5-0.5-0.5c-0.276,0-0.5,0.224-0.5,0.5
	c0,0.275,0.224,0.5,0.5,0.5C170.355,281.13,170.579,280.906,170.579,280.63"/>
<path fill-rule="evenodd" clip-rule="evenodd" d="M173.414,280.63c0-0.276-0.224-0.5-0.5-0.5c-0.276,0-0.5,0.224-0.5,0.5
	c0,0.275,0.224,0.5,0.5,0.5C173.189,281.13,173.414,280.906,173.414,280.63"/>
<path fill-rule="evenodd" clip-rule="evenodd" d="M159.24,266.457c0-0.276-0.224-0.5-0.5-0.5c-0.276,0-0.5,0.224-0.5,0.5
	s0.224,0.5,0.5,0.5C159.016,266.957,159.24,266.733,159.24,266.457"/>
<path fill-rule="evenodd" clip-rule="evenodd" d="M162.075,263.622c0-0.275-0.224-0.5-0.5-0.5c-0.276,0-0.5,0.225-0.5,0.5
	c0,0.276,0.224,0.5,0.5,0.5C161.851,264.122,162.075,263.898,162.075,263.622"/>
<path fill-rule="evenodd" clip-rule="evenodd" d="M164.91,260.788c0-0.276-0.224-0.5-0.5-0.5c-0.276,0-0.5,0.224-0.5,0.5
	s0.224,0.5,0.5,0.5C164.686,261.288,164.91,261.064,164.91,260.788"/>
<path fill-rule="evenodd" clip-rule="evenodd" d="M167.744,257.953c0-0.276-0.224-0.5-0.5-0.5c-0.276,0-0.5,0.224-0.5,0.5
	s0.224,0.5,0.5,0.5C167.52,258.453,167.744,258.229,167.744,257.953"/>
<path fill-rule="evenodd" clip-rule="evenodd" d="M170.579,255.118c0-0.275-0.224-0.5-0.5-0.5c-0.276,0-0.5,0.225-0.5,0.5
	c0,0.276,0.224,0.5,0.5,0.5C170.355,255.618,170.579,255.394,170.579,255.118"/>
<path fill-rule="evenodd" clip-rule="evenodd" d="M173.414,252.284c0-0.276-0.224-0.5-0.5-0.5c-0.276,0-0.5,0.224-0.5,0.5
	s0.224,0.5,0.5,0.5C173.189,252.784,173.414,252.56,173.414,252.284"/>
<path fill-rule="evenodd" clip-rule="evenodd" d="M159.24,280.63c0-0.276-0.224-0.5-0.5-0.5c-0.276,0-0.5,0.224-0.5,0.5
	c0,0.275,0.224,0.5,0.5,0.5C159.016,281.13,159.24,280.906,159.24,280.63"/>
<path fill-rule="evenodd" clip-rule="evenodd" d="M162.075,277.795c0-0.276-0.224-0.5-0.5-0.5c-0.276,0-0.5,0.224-0.5,0.5
	s0.224,0.5,0.5,0.5C161.851,278.295,162.075,278.072,162.075,277.795"/>
<path fill-rule="evenodd" clip-rule="evenodd" d="M164.91,274.96c0-0.276-0.224-0.5-0.5-0.5c-0.276,0-0.5,0.224-0.5,0.5
	s0.224,0.5,0.5,0.5C164.686,275.46,164.91,275.237,164.91,274.96"/>
<path fill-rule="evenodd" clip-rule="evenodd" d="M167.744,272.126c0-0.276-0.224-0.5-0.5-0.5c-0.276,0-0.5,0.224-0.5,0.5
	c0,0.275,0.224,0.5,0.5,0.5C167.52,272.626,167.744,272.402,167.744,272.126"/>
<path fill-rule="evenodd" clip-rule="evenodd" d="M170.579,269.292c0-0.276-0.224-0.5-0.5-0.5c-0.276,0-0.5,0.224-0.5,0.5
	s0.224,0.5,0.5,0.5C170.355,269.792,170.579,269.568,170.579,269.292"/>
<path fill-rule="evenodd" clip-rule="evenodd" d="M173.414,266.457c0-0.276-0.224-0.5-0.5-0.5c-0.276,0-0.5,0.224-0.5,0.5
	s0.224,0.5,0.5,0.5C173.189,266.957,173.414,266.733,173.414,266.457"/>
<path fill-rule="evenodd" clip-rule="evenodd" d="M159.24,266.457c0-0.276-0.224-0.5-0.5-0.5c-0.276,0-0.5,0.224-0.5,0.5
	s0.224,0.5,0.5,0.5C159.016,266.957,159.24,266.733,159.24,266.457"/>
<path fill-rule="evenodd" clip-rule="evenodd" d="M159.24,263.622c0-0.275-0.224-0.5-0.5-0.5c-0.276,0-0.5,0.225-0.5,0.5
	c0,0.276,0.224,0.5,0.5,0.5C159.016,264.122,159.24,263.898,159.24,263.622"/>
<path fill-rule="evenodd" clip-rule="evenodd" d="M159.24,260.788c0-0.276-0.224-0.5-0.5-0.5c-0.276,0-0.5,0.224-0.5,0.5
	s0.224,0.5,0.5,0.5C159.016,261.288,159.24,261.064,159.24,260.788"/>
<path fill-rule="evenodd" clip-rule="evenodd" d="M159.24,257.953c0-0.276-0.224-0.5-0.5-0.5c-0.276,0-0.5,0.224-0.5,0.5
	s0.224,0.5,0.5,0.5C159.016,258.453,159.24,258.229,159.24,257.953"/>
<path fill-rule="evenodd" clip-rule="evenodd" d="M159.24,255.118c0-0.275-0.224-0.5-0.5-0.5c-0.276,0-0.5,0.225-0.5,0.5
	c0,0.276,0.224,0.5,0.5,0.5C159.016,255.618,159.24,255.394,159.24,255.118"/>
<path fill-rule="evenodd" clip-rule="evenodd" d="M159.24,252.284c0-0.276-0.224-0.5-0.5-0.5c-0.276,0-0.5,0.224-0.5,0.5
	s0.224,0.5,0.5,0.5C159.016,252.784,159.24,252.56,159.24,252.284"/>
<path fill-rule="evenodd" clip-rule="evenodd" d="M159.24,280.63c0-0.276-0.224-0.5-0.5-0.5c-0.276,0-0.5,0.224-0.5,0.5
	c0,0.275,0.224,0.5,0.5,0.5C159.016,281.13,159.24,280.906,159.24,280.63"/>
<path fill-rule="evenodd" clip-rule="evenodd" d="M159.24,277.795c0-0.276-0.224-0.5-0.5-0.5c-0.276,0-0.5,0.224-0.5,0.5
	s0.224,0.5,0.5,0.5C159.016,278.295,159.24,278.072,159.24,277.795"/>
<path fill-rule="evenodd" clip-rule="evenodd" d="M159.24,274.96c0-0.276-0.224-0.5-0.5-0.5c-0.276,0-0.5,0.224-0.5,0.5
	s0.224,0.5,0.5,0.5C159.016,275.46,159.24,275.237,159.24,274.96"/>
<path fill-rule="evenodd" clip-rule="evenodd" d="M159.24,272.126c0-0.276-0.224-0.5-0.5-0.5c-0.276,0-0.5,0.224-0.5,0.5
	c0,0.275,0.224,0.5,0.5,0.5C159.016,272.626,159.24,272.402,159.24,272.126"/>
<path fill-rule="evenodd" clip-rule="evenodd" d="M159.24,269.292c0-0.276-0.224-0.5-0.5-0.5c-0.276,0-0.5,0.224-0.5,0.5
	s0.224,0.5,0.5,0.5C159.016,269.792,159.24,269.568,159.24,269.292"/>
<path fill-rule="evenodd" clip-rule="evenodd" d="M159.24,266.457c0-0.276-0.224-0.5-0.5-0.5c-0.276,0-0.5,0.224-0.5,0.5
	s0.224,0.5,0.5,0.5C159.016,266.957,159.24,266.733,159.24,266.457"/>
<path fill-rule="evenodd" clip-rule="evenodd" d="M173.414,266.457c0-0.276-0.224-0.5-0.5-0.5c-0.276,0-0.5,0.224-0.5,0.5
	s0.224,0.5,0.5,0.5C173.189,266.957,173.414,266.733,173.414,266.457"/>
<path fill-rule="evenodd" clip-rule="evenodd" d="M173.414,263.622c0-0.275-0.224-0.5-0.5-0.5c-0.276,0-0.5,0.225-0.5,0.5
	c0,0.276,0.224,0.5,0.5,0.5C173.189,264.122,173.414,263.898,173.414,263.622"/>
<path fill-rule="evenodd" clip-rule="evenodd" d="M173.414,260.788c0-0.276-0.224-0.5-0.5-0.5c-0.276,0-0.5,0.224-0.5,0.5
	s0.224,0.5,0.5,0.5C173.189,261.288,173.414,261.064,173.414,260.788"/>
<path fill-rule="evenodd" clip-rule="evenodd" d="M173.414,257.953c0-0.276-0.224-0.5-0.5-0.5c-0.276,0-0.5,0.224-0.5,0.5
	s0.224,0.5,0.5,0.5C173.189,258.453,173.414,258.229,173.414,257.953"/>
<path fill-rule="evenodd" clip-rule="evenodd" d="M173.414,255.118c0-0.275-0.224-0.5-0.5-0.5c-0.276,0-0.5,0.225-0.5,0.5
	c0,0.276,0.224,0.5,0.5,0.5C173.189,255.618,173.414,255.394,173.414,255.118"/>
<path fill-rule="evenodd" clip-rule="evenodd" d="M173.414,252.284c0-0.276-0.224-0.5-0.5-0.5c-0.276,0-0.5,0.224-0.5,0.5
	s0.224,0.5,0.5,0.5C173.189,252.784,173.414,252.56,173.414,252.284"/>
<path fill-rule="evenodd" clip-rule="evenodd" d="M173.414,280.63c0-0.276-0.224-0.5-0.5-0.5c-0.276,0-0.5,0.224-0.5,0.5
	c0,0.275,0.224,0.5,0.5,0.5C173.189,281.13,173.414,280.906,173.414,280.63"/>
<path fill-rule="evenodd" clip-rule="evenodd" d="M173.414,277.795c0-0.276-0.224-0.5-0.5-0.5c-0.276,0-0.5,0.224-0.5,0.5
	s0.224,0.5,0.5,0.5C173.189,278.295,173.414,278.072,173.414,277.795"/>
<path fill-rule="evenodd" clip-rule="evenodd" d="M173.414,274.96c0-0.276-0.224-0.5-0.5-0.5c-0.276,0-0.5,0.224-0.5,0.5
	s0.224,0.5,0.5,0.5C173.189,275.46,173.414,275.237,173.414,274.96"/>
<path fill-rule="evenodd" clip-rule="evenodd" d="M173.414,272.126c0-0.276-0.224-0.5-0.5-0.5c-0.276,0-0.5,0.224-0.5,0.5
	c0,0.275,0.224,0.5,0.5,0.5C173.189,272.626,173.414,272.402,173.414,272.126"/>
<path fill-rule="evenodd" clip-rule="evenodd" d="M173.414,269.292c0-0.276-0.224-0.5-0.5-0.5c-0.276,0-0.5,0.224-0.5,0.5
	s0.224,0.5,0.5,0.5C173.189,269.792,173.414,269.568,173.414,269.292"/>
<path fill-rule="evenodd" clip-rule="evenodd" d="M173.414,266.457c0-0.276-0.224-0.5-0.5-0.5c-0.276,0-0.5,0.224-0.5,0.5
	s0.224,0.5,0.5,0.5C173.189,266.957,173.414,266.733,173.414,266.457"/>
<line fill="none" stroke="#000000" stroke-width="5.6693" stroke-miterlimit="10" x1="181.417" y1="243.78" x2="201.26" y2="243.78"/>
<path fill-rule="evenodd" clip-rule="evenodd" d="M184.752,252.284c0-0.276-0.224-0.5-0.5-0.5s-0.5,0.224-0.5,0.5s0.224,0.5,0.5,0.5
	S184.752,252.56,184.752,252.284"/>
<path fill-rule="evenodd" clip-rule="evenodd" d="M187.586,252.284c0-0.276-0.224-0.5-0.5-0.5c-0.276,0-0.5,0.224-0.5,0.5
	s0.224,0.5,0.5,0.5C187.363,252.784,187.586,252.56,187.586,252.284"/>
<path fill-rule="evenodd" clip-rule="evenodd" d="M190.421,252.284c0-0.276-0.224-0.5-0.5-0.5c-0.276,0-0.5,0.224-0.5,0.5
	s0.224,0.5,0.5,0.5C190.197,252.784,190.421,252.56,190.421,252.284"/>
<path fill-rule="evenodd" clip-rule="evenodd" d="M193.256,252.284c0-0.276-0.224-0.5-0.5-0.5c-0.276,0-0.5,0.224-0.5,0.5
	s0.224,0.5,0.5,0.5C193.032,252.784,193.256,252.56,193.256,252.284"/>
<path fill-rule="evenodd" clip-rule="evenodd" d="M196.09,252.284c0-0.276-0.224-0.5-0.5-0.5c-0.276,0-0.5,0.224-0.5,0.5
	s0.224,0.5,0.5,0.5C195.867,252.784,196.09,252.56,196.09,252.284"/>
<path fill-rule="evenodd" clip-rule="evenodd" d="M198.925,252.284c0-0.276-0.224-0.5-0.5-0.5c-0.276,0-0.5,0.224-0.5,0.5
	s0.224,0.5,0.5,0.5C198.701,252.784,198.925,252.56,198.925,252.284"/>
<path fill-rule="evenodd" clip-rule="evenodd" d="M184.752,266.457c0-0.276-0.224-0.5-0.5-0.5s-0.5,0.224-0.5,0.5s0.224,0.5,0.5,0.5
	S184.752,266.733,184.752,266.457"/>
<path fill-rule="evenodd" clip-rule="evenodd" d="M187.586,266.457c0-0.276-0.224-0.5-0.5-0.5c-0.276,0-0.5,0.224-0.5,0.5
	s0.224,0.5,0.5,0.5C187.363,266.957,187.586,266.733,187.586,266.457"/>
<path fill-rule="evenodd" clip-rule="evenodd" d="M190.421,266.457c0-0.276-0.224-0.5-0.5-0.5c-0.276,0-0.5,0.224-0.5,0.5
	s0.224,0.5,0.5,0.5C190.197,266.957,190.421,266.733,190.421,266.457"/>
<path fill-rule="evenodd" clip-rule="evenodd" d="M193.256,266.457c0-0.276-0.224-0.5-0.5-0.5c-0.276,0-0.5,0.224-0.5,0.5
	s0.224,0.5,0.5,0.5C193.032,266.957,193.256,266.733,193.256,266.457"/>
<path fill-rule="evenodd" clip-rule="evenodd" d="M196.09,266.457c0-0.276-0.224-0.5-0.5-0.5c-0.276,0-0.5,0.224-0.5,0.5
	s0.224,0.5,0.5,0.5C195.867,266.957,196.09,266.733,196.09,266.457"/>
<path fill-rule="evenodd" clip-rule="evenodd" d="M198.925,266.457c0-0.276-0.224-0.5-0.5-0.5c-0.276,0-0.5,0.224-0.5,0.5
	s0.224,0.5,0.5,0.5C198.701,266.957,198.925,266.733,198.925,266.457"/>
<path fill-rule="evenodd" clip-rule="evenodd" d="M184.752,280.63c0-0.276-0.224-0.5-0.5-0.5s-0.5,0.224-0.5,0.5
	c0,0.275,0.224,0.5,0.5,0.5S184.752,280.906,184.752,280.63"/>
<path fill-rule="evenodd" clip-rule="evenodd" d="M187.586,280.63c0-0.276-0.224-0.5-0.5-0.5c-0.276,0-0.5,0.224-0.5,0.5
	c0,0.275,0.224,0.5,0.5,0.5C187.363,281.13,187.586,280.906,187.586,280.63"/>
<path fill-rule="evenodd" clip-rule="evenodd" d="M190.421,280.63c0-0.276-0.224-0.5-0.5-0.5c-0.276,0-0.5,0.224-0.5,0.5
	c0,0.275,0.224,0.5,0.5,0.5C190.197,281.13,190.421,280.906,190.421,280.63"/>
<path fill-rule="evenodd" clip-rule="evenodd" d="M193.256,280.63c0-0.276-0.224-0.5-0.5-0.5c-0.276,0-0.5,0.224-0.5,0.5
	c0,0.275,0.224,0.5,0.5,0.5C193.032,281.13,193.256,280.906,193.256,280.63"/>
<path fill-rule="evenodd" clip-rule="evenodd" d="M196.09,280.63c0-0.276-0.224-0.5-0.5-0.5c-0.276,0-0.5,0.224-0.5,0.5
	c0,0.275,0.224,0.5,0.5,0.5C195.867,281.13,196.09,280.906,196.09,280.63"/>
<path fill-rule="evenodd" clip-rule="evenodd" d="M198.925,280.63c0-0.276-0.224-0.5-0.5-0.5c-0.276,0-0.5,0.224-0.5,0.5
	c0,0.275,0.224,0.5,0.5,0.5C198.701,281.13,198.925,280.906,198.925,280.63"/>
<path fill-rule="evenodd" clip-rule="evenodd" d="M184.752,266.457c0-0.276-0.224-0.5-0.5-0.5s-0.5,0.224-0.5,0.5s0.224,0.5,0.5,0.5
	S184.752,266.733,184.752,266.457"/>
<path fill-rule="evenodd" clip-rule="evenodd" d="M187.586,263.622c0-0.275-0.224-0.5-0.5-0.5c-0.276,0-0.5,0.225-0.5,0.5
	c0,0.276,0.224,0.5,0.5,0.5C187.363,264.122,187.586,263.898,187.586,263.622"/>
<path fill-rule="evenodd" clip-rule="evenodd" d="M190.421,260.788c0-0.276-0.224-0.5-0.5-0.5c-0.276,0-0.5,0.224-0.5,0.5
	s0.224,0.5,0.5,0.5C190.197,261.288,190.421,261.064,190.421,260.788"/>
<path fill-rule="evenodd" clip-rule="evenodd" d="M193.256,257.953c0-0.276-0.224-0.5-0.5-0.5c-0.276,0-0.5,0.224-0.5,0.5
	s0.224,0.5,0.5,0.5C193.032,258.453,193.256,258.229,193.256,257.953"/>
<path fill-rule="evenodd" clip-rule="evenodd" d="M196.09,255.118c0-0.275-0.224-0.5-0.5-0.5c-0.276,0-0.5,0.225-0.5,0.5
	c0,0.276,0.224,0.5,0.5,0.5C195.867,255.618,196.09,255.394,196.09,255.118"/>
<path fill-rule="evenodd" clip-rule="evenodd" d="M198.925,252.284c0-0.276-0.224-0.5-0.5-0.5c-0.276,0-0.5,0.224-0.5,0.5
	s0.224,0.5,0.5,0.5C198.701,252.784,198.925,252.56,198.925,252.284"/>
<path fill-rule="evenodd" clip-rule="evenodd" d="M184.752,280.63c0-0.276-0.224-0.5-0.5-0.5s-0.5,0.224-0.5,0.5
	c0,0.275,0.224,0.5,0.5,0.5S184.752,280.906,184.752,280.63"/>
<path fill-rule="evenodd" clip-rule="evenodd" d="M187.586,277.795c0-0.276-0.224-0.5-0.5-0.5c-0.276,0-0.5,0.224-0.5,0.5
	s0.224,0.5,0.5,0.5C187.363,278.295,187.586,278.072,187.586,277.795"/>
<path fill-rule="evenodd" clip-rule="evenodd" d="M190.421,274.96c0-0.276-0.224-0.5-0.5-0.5c-0.276,0-0.5,0.224-0.5,0.5
	s0.224,0.5,0.5,0.5C190.197,275.46,190.421,275.237,190.421,274.96"/>
<path fill-rule="evenodd" clip-rule="evenodd" d="M193.256,272.126c0-0.276-0.224-0.5-0.5-0.5c-0.276,0-0.5,0.224-0.5,0.5
	c0,0.275,0.224,0.5,0.5,0.5C193.032,272.626,193.256,272.402,193.256,272.126"/>
<path fill-rule="evenodd" clip-rule="evenodd" d="M196.09,269.292c0-0.276-0.224-0.5-0.5-0.5c-0.276,0-0.5,0.224-0.5,0.5
	s0.224,0.5,0.5,0.5C195.867,269.792,196.09,269.568,196.09,269.292"/>
<path fill-rule="evenodd" clip-rule="evenodd" d="M198.925,266.457c0-0.276-0.224-0.5-0.5-0.5c-0.276,0-0.5,0.224-0.5,0.5
	s0.224,0.5,0.5,0.5C198.701,266.957,198.925,266.733,198.925,266.457"/>
<path fill-rule="evenodd" clip-rule="evenodd" d="M184.752,266.457c0-0.276-0.224-0.5-0.5-0.5s-0.5,0.224-0.5,0.5s0.224,0.5,0.5,0.5
	S184.752,266.733,184.752,266.457"/>
<path fill-rule="evenodd" clip-rule="evenodd" d="M184.752,263.622c0-0.275-0.224-0.5-0.5-0.5s-0.5,0.225-0.5,0.5
	c0,0.276,0.224,0.5,0.5,0.5S184.752,263.898,184.752,263.622"/>
<path fill-rule="evenodd" clip-rule="evenodd" d="M184.752,260.788c0-0.276-0.224-0.5-0.5-0.5s-0.5,0.224-0.5,0.5s0.224,0.5,0.5,0.5
	S184.752,261.064,184.752,260.788"/>
<path fill-rule="evenodd" clip-rule="evenodd" d="M184.752,257.953c0-0.276-0.224-0.5-0.5-0.5s-0.5,0.224-0.5,0.5s0.224,0.5,0.5,0.5
	S184.752,258.229,184.752,257.953"/>
<path fill-rule="evenodd" clip-rule="evenodd" d="M184.752,255.118c0-0.275-0.224-0.5-0.5-0.5s-0.5,0.225-0.5,0.5
	c0,0.276,0.224,0.5,0.5,0.5S184.752,255.394,184.752,255.118"/>
<path fill-rule="evenodd" clip-rule="evenodd" d="M184.752,252.284c0-0.276-0.224-0.5-0.5-0.5s-0.5,0.224-0.5,0.5s0.224,0.5,0.5,0.5
	S184.752,252.56,184.752,252.284"/>
<path fill-rule="evenodd" clip-rule="evenodd" d="M184.752,280.63c0-0.276-0.224-0.5-0.5-0.5s-0.5,0.224-0.5,0.5
	c0,0.275,0.224,0.5,0.5,0.5S184.752,280.906,184.752,280.63"/>
<path fill-rule="evenodd" clip-rule="evenodd" d="M184.752,277.795c0-0.276-0.224-0.5-0.5-0.5s-0.5,0.224-0.5,0.5s0.224,0.5,0.5,0.5
	S184.752,278.072,184.752,277.795"/>
<path fill-rule="evenodd" clip-rule="evenodd" d="M184.752,274.96c0-0.276-0.224-0.5-0.5-0.5s-0.5,0.224-0.5,0.5s0.224,0.5,0.5,0.5
	S184.752,275.237,184.752,274.96"/>
<path fill-rule="evenodd" clip-rule="evenodd" d="M184.752,272.126c0-0.276-0.224-0.5-0.5-0.5s-0.5,0.224-0.5,0.5
	c0,0.275,0.224,0.5,0.5,0.5S184.752,272.402,184.752,272.126"/>
<path fill-rule="evenodd" clip-rule="evenodd" d="M184.752,269.292c0-0.276-0.224-0.5-0.5-0.5s-0.5,0.224-0.5,0.5s0.224,0.5,0.5,0.5
	S184.752,269.568,184.752,269.292"/>
<path fill-rule="evenodd" clip-rule="evenodd" d="M184.752,266.457c0-0.276-0.224-0.5-0.5-0.5s-0.5,0.224-0.5,0.5s0.224,0.5,0.5,0.5
	S184.752,266.733,184.752,266.457"/>
<path fill-rule="evenodd" clip-rule="evenodd" d="M198.925,266.457c0-0.276-0.224-0.5-0.5-0.5c-0.276,0-0.5,0.224-0.5,0.5
	s0.224,0.5,0.5,0.5C198.701,266.957,198.925,266.733,198.925,266.457"/>
<path fill-rule="evenodd" clip-rule="evenodd" d="M198.925,263.622c0-0.275-0.224-0.5-0.5-0.5c-0.276,0-0.5,0.225-0.5,0.5
	c0,0.276,0.224,0.5,0.5,0.5C198.701,264.122,198.925,263.898,198.925,263.622"/>
<path fill-rule="evenodd" clip-rule="evenodd" d="M198.925,260.788c0-0.276-0.224-0.5-0.5-0.5c-0.276,0-0.5,0.224-0.5,0.5
	s0.224,0.5,0.5,0.5C198.701,261.288,198.925,261.064,198.925,260.788"/>
<path fill-rule="evenodd" clip-rule="evenodd" d="M198.925,257.953c0-0.276-0.224-0.5-0.5-0.5c-0.276,0-0.5,0.224-0.5,0.5
	s0.224,0.5,0.5,0.5C198.701,258.453,198.925,258.229,198.925,257.953"/>
<path fill-rule="evenodd" clip-rule="evenodd" d="M198.925,255.118c0-0.275-0.224-0.5-0.5-0.5c-0.276,0-0.5,0.225-0.5,0.5
	c0,0.276,0.224,0.5,0.5,0.5C198.701,255.618,198.925,255.394,198.925,255.118"/>
<path fill-rule="evenodd" clip-rule="evenodd" d="M198.925,252.284c0-0.276-0.224-0.5-0.5-0.5c-0.276,0-0.5,0.224-0.5,0.5
	s0.224,0.5,0.5,0.5C198.701,252.784,198.925,252.56,198.925,252.284"/>
<path fill-rule="evenodd" clip-rule="evenodd" d="M198.925,280.63c0-0.276-0.224-0.5-0.5-0.5c-0.276,0-0.5,0.224-0.5,0.5
	c0,0.275,0.224,0.5,0.5,0.5C198.701,281.13,198.925,280.906,198.925,280.63"/>
<path fill-rule="evenodd" clip-rule="evenodd" d="M198.925,277.795c0-0.276-0.224-0.5-0.5-0.5c-0.276,0-0.5,0.224-0.5,0.5
	s0.224,0.5,0.5,0.5C198.701,278.295,198.925,278.072,198.925,277.795"/>
<path fill-rule="evenodd" clip-rule="evenodd" d="M198.925,274.96c0-0.276-0.224-0.5-0.5-0.5c-0.276,0-0.5,0.224-0.5,0.5
	s0.224,0.5,0.5,0.5C198.701,275.46,198.925,275.237,198.925,274.96"/>
<path fill-rule="evenodd" clip-rule="evenodd" d="M198.925,272.126c0-0.276-0.224-0.5-0.5-0.5c-0.276,0-0.5,0.224-0.5,0.5
	c0,0.275,0.224,0.5,0.5,0.5C198.701,272.626,198.925,272.402,198.925,272.126"/>
<path fill-rule="evenodd" clip-rule="evenodd" d="M198.925,269.292c0-0.276-0.224-0.5-0.5-0.5c-0.276,0-0.5,0.224-0.5,0.5
	s0.224,0.5,0.5,0.5C198.701,269.792,198.925,269.568,198.925,269.292"/>
<path fill-rule="evenodd" clip-rule="evenodd" d="M198.925,266.457c0-0.276-0.224-0.5-0.5-0.5c-0.276,0-0.5,0.224-0.5,0.5
	s0.224,0.5,0.5,0.5C198.701,266.957,198.925,266.733,198.925,266.457"/>
<text transform="matrix(1 0 0 1 178.25 86.811)" font-family="'ArialMT'" font-size="12">{{ sender.from_index }}</text>
<text transform="matrix(1 0 0 1 309.9165 260.2271)" font-family="'ArialMT'" font-size="18" letter-spacing="3">{{ sender.from_index }}</text>

<text transform="matrix(1 0 0 1 55.9995 29.4775)" font-family="'ArialMT'" font-size="10">{{ sender.from_name }}</text>
<text transform="matrix(1 0 0 1 325.333 183.478)" font-family="'ArialMT'" font-size="10">{{ sender.from_name }}</text>
<text transform="matrix(1 0 0 1 325.333 202.144)" font-family="'ArialMT'" font-size="10">{{ sender.from_street }}</text>
<text transform="matrix(1 0 0 1 297.333 220.894)" font-family="'ArialMT'" font-size="10">{{ sender.from_region }}</text>
<text transform="matrix(1 0 0 1 55.9995 47.9775)" font-family="'ArialMT'" font-size="10">{{ sender.from_street }}</text>
<text transform="matrix(1 0 0 1 14.9995 66.9775)" font-family="'ArialMT'" font-size="10">{{ sender.from_region }}</text>

</svg>
